<mxfile host="app.diagrams.net" modified="2024-01-25T17:21:28.389Z" agent="Mozilla/5.0 (Windows NT 10.0; Win64; x64) AppleWebKit/537.36 (KHTML, like Gecko) Chrome/118.0.0.0 YaBrowser/23.11.0.0 Safari/537.36" etag="yioPiPFfC7ALuJCUHv3j" version="22.1.21" type="device" pages="3">
  <diagram name="DFD-контекстная" id="s5lCJFTY3WnK2LZnQ7ZJ">
    <mxGraphModel dx="1687" dy="893" grid="1" gridSize="10" guides="1" tooltips="1" connect="1" arrows="1" fold="1" page="1" pageScale="1" pageWidth="827" pageHeight="1169" math="0" shadow="0">
      <root>
        <mxCell id="0" />
        <mxCell id="1" parent="0" />
        <mxCell id="1ozliqnVawUzlaGzVW4S-1" value="0" style="swimlane;childLayout=stackLayout;horizontal=1;startSize=30;horizontalStack=0;rounded=1;fontSize=14;fontStyle=0;strokeWidth=1;resizeParent=0;resizeLast=1;shadow=0;dashed=0;align=center;fillColor=#FFFFFF;" parent="1" vertex="1">
          <mxGeometry x="320" y="1130" width="150" height="110" as="geometry" />
        </mxCell>
        <mxCell id="1ozliqnVawUzlaGzVW4S-2" value="Приложение &quot;Stets&quot;" style="align=center;strokeColor=none;fillColor=none;spacingLeft=4;fontSize=12;verticalAlign=middle;resizable=0;rotatable=0;part=1;" parent="1ozliqnVawUzlaGzVW4S-1" vertex="1">
          <mxGeometry y="30" width="150" height="80" as="geometry" />
        </mxCell>
        <mxCell id="1ozliqnVawUzlaGzVW4S-5" style="edgeStyle=orthogonalEdgeStyle;rounded=1;orthogonalLoop=1;jettySize=auto;html=1;exitX=0;exitY=0.5;exitDx=0;exitDy=0;entryX=0;entryY=0.5;entryDx=0;entryDy=0;curved=0;" parent="1" source="1ozliqnVawUzlaGzVW4S-3" target="1ozliqnVawUzlaGzVW4S-2" edge="1">
          <mxGeometry relative="1" as="geometry">
            <Array as="points">
              <mxPoint x="240" y="995" />
              <mxPoint x="240" y="1200" />
            </Array>
          </mxGeometry>
        </mxCell>
        <mxCell id="1ozliqnVawUzlaGzVW4S-9" style="edgeStyle=orthogonalEdgeStyle;rounded=1;orthogonalLoop=1;jettySize=auto;html=1;exitX=0;exitY=0.5;exitDx=0;exitDy=0;entryX=0;entryY=0.5;entryDx=0;entryDy=0;curved=0;" parent="1" source="1ozliqnVawUzlaGzVW4S-3" target="1ozliqnVawUzlaGzVW4S-2" edge="1">
          <mxGeometry relative="1" as="geometry">
            <Array as="points">
              <mxPoint x="100" y="995" />
              <mxPoint x="100" y="1200" />
            </Array>
          </mxGeometry>
        </mxCell>
        <mxCell id="1ozliqnVawUzlaGzVW4S-12" style="edgeStyle=orthogonalEdgeStyle;rounded=1;orthogonalLoop=1;jettySize=auto;html=1;exitX=0;exitY=0.5;exitDx=0;exitDy=0;entryX=0;entryY=0.5;entryDx=0;entryDy=0;curved=0;" parent="1" source="1ozliqnVawUzlaGzVW4S-3" target="1ozliqnVawUzlaGzVW4S-2" edge="1">
          <mxGeometry relative="1" as="geometry">
            <Array as="points">
              <mxPoint x="40" y="995" />
              <mxPoint x="40" y="1200" />
            </Array>
          </mxGeometry>
        </mxCell>
        <mxCell id="1ozliqnVawUzlaGzVW4S-3" value="Пользователь" style="html=1;dashed=0;whitespace=wrap;" parent="1" vertex="1">
          <mxGeometry x="345" y="970" width="100" height="50" as="geometry" />
        </mxCell>
        <mxCell id="1ozliqnVawUzlaGzVW4S-13" style="edgeStyle=orthogonalEdgeStyle;rounded=0;orthogonalLoop=1;jettySize=auto;html=1;exitX=0.5;exitY=0;exitDx=0;exitDy=0;" parent="1" edge="1">
          <mxGeometry relative="1" as="geometry">
            <mxPoint x="360" y="1400" as="sourcePoint" />
            <mxPoint x="360" y="1240" as="targetPoint" />
          </mxGeometry>
        </mxCell>
        <mxCell id="1ozliqnVawUzlaGzVW4S-4" value="Утройство" style="html=1;dashed=0;whitespace=wrap;" parent="1" vertex="1">
          <mxGeometry x="345" y="1400" width="100" height="50" as="geometry" />
        </mxCell>
        <mxCell id="1ozliqnVawUzlaGzVW4S-6" value="&lt;font style=&quot;font-size: 10px;&quot;&gt;Данные пользователя&lt;/font&gt;" style="text;html=1;strokeColor=none;fillColor=none;align=center;verticalAlign=middle;whiteSpace=wrap;rounded=0;" parent="1" vertex="1">
          <mxGeometry x="205" y="1020" width="70" height="30" as="geometry" />
        </mxCell>
        <mxCell id="1ozliqnVawUzlaGzVW4S-7" style="edgeStyle=orthogonalEdgeStyle;rounded=1;orthogonalLoop=1;jettySize=auto;html=1;exitX=0;exitY=0.5;exitDx=0;exitDy=0;curved=0;" parent="1" source="1ozliqnVawUzlaGzVW4S-3" edge="1">
          <mxGeometry relative="1" as="geometry">
            <mxPoint x="320" y="1200" as="targetPoint" />
            <Array as="points">
              <mxPoint x="170" y="995" />
              <mxPoint x="170" y="1200" />
            </Array>
          </mxGeometry>
        </mxCell>
        <mxCell id="1ozliqnVawUzlaGzVW4S-8" value="&lt;font style=&quot;font-size: 10px;&quot;&gt;Данные устройства/комнаты/дома&lt;/font&gt;" style="text;html=1;strokeColor=none;fillColor=none;align=center;verticalAlign=middle;whiteSpace=wrap;rounded=0;" parent="1" vertex="1">
          <mxGeometry x="140" y="1060" width="70" height="30" as="geometry" />
        </mxCell>
        <mxCell id="1ozliqnVawUzlaGzVW4S-10" value="&lt;font style=&quot;font-size: 10px;&quot;&gt;Статус устройства/комнаты&lt;/font&gt;" style="text;html=1;strokeColor=none;fillColor=none;align=center;verticalAlign=middle;whiteSpace=wrap;rounded=0;" parent="1" vertex="1">
          <mxGeometry x="70" y="1100" width="70" height="30" as="geometry" />
        </mxCell>
        <mxCell id="1ozliqnVawUzlaGzVW4S-11" value="&lt;font style=&quot;font-size: 10px;&quot;&gt;Сценарии автоматизации&lt;/font&gt;" style="text;html=1;strokeColor=none;fillColor=none;align=center;verticalAlign=middle;whiteSpace=wrap;rounded=0;" parent="1" vertex="1">
          <mxGeometry x="10" y="1140" width="70" height="30" as="geometry" />
        </mxCell>
        <mxCell id="1ozliqnVawUzlaGzVW4S-14" value="&lt;font style=&quot;font-size: 10px;&quot;&gt;Данные устройства&lt;/font&gt;" style="text;html=1;strokeColor=none;fillColor=none;align=center;verticalAlign=middle;whiteSpace=wrap;rounded=0;" parent="1" vertex="1">
          <mxGeometry x="330" y="1340" width="70" height="30" as="geometry" />
        </mxCell>
        <mxCell id="1ozliqnVawUzlaGzVW4S-15" style="edgeStyle=orthogonalEdgeStyle;rounded=1;orthogonalLoop=1;jettySize=auto;html=1;exitX=1;exitY=0.5;exitDx=0;exitDy=0;entryX=1;entryY=0.5;entryDx=0;entryDy=0;curved=0;" parent="1" source="1ozliqnVawUzlaGzVW4S-2" target="1ozliqnVawUzlaGzVW4S-3" edge="1">
          <mxGeometry relative="1" as="geometry">
            <Array as="points">
              <mxPoint x="530" y="1200" />
              <mxPoint x="530" y="995" />
            </Array>
          </mxGeometry>
        </mxCell>
        <mxCell id="1ozliqnVawUzlaGzVW4S-16" value="&lt;font style=&quot;font-size: 10px;&quot;&gt;Статус комнаты/устройства&lt;/font&gt;" style="text;html=1;strokeColor=none;fillColor=none;align=center;verticalAlign=middle;whiteSpace=wrap;rounded=0;" parent="1" vertex="1">
          <mxGeometry x="495" y="1080" width="70" height="30" as="geometry" />
        </mxCell>
        <mxCell id="1ozliqnVawUzlaGzVW4S-19" style="edgeStyle=orthogonalEdgeStyle;rounded=0;orthogonalLoop=1;jettySize=auto;html=1;exitX=0.75;exitY=1;exitDx=0;exitDy=0;entryX=0.88;entryY=0;entryDx=0;entryDy=0;entryPerimeter=0;" parent="1" source="1ozliqnVawUzlaGzVW4S-2" target="1ozliqnVawUzlaGzVW4S-4" edge="1">
          <mxGeometry relative="1" as="geometry" />
        </mxCell>
        <mxCell id="1ozliqnVawUzlaGzVW4S-20" value="&lt;font style=&quot;font-size: 10px;&quot;&gt;Статус устройства&lt;/font&gt;" style="text;html=1;strokeColor=none;fillColor=none;align=center;verticalAlign=middle;whiteSpace=wrap;rounded=0;" parent="1" vertex="1">
          <mxGeometry x="400" y="1270" width="70" height="30" as="geometry" />
        </mxCell>
      </root>
    </mxGraphModel>
  </diagram>
  <diagram id="t43UHranroWxV_A746m3" name="DFD-логическая">
    <mxGraphModel dx="6563" dy="1867" grid="1" gridSize="10" guides="1" tooltips="1" connect="1" arrows="1" fold="1" page="1" pageScale="1" pageWidth="827" pageHeight="1169" math="0" shadow="0">
      <root>
        <mxCell id="0" />
        <mxCell id="1" parent="0" />
        <mxCell id="n-kuVpftpnRCnn8pyIgr-31" value="&lt;font style=&quot;font-size: 10px;&quot;&gt;Данные пользователя&lt;/font&gt;" style="text;html=1;strokeColor=none;fillColor=none;align=center;verticalAlign=middle;whiteSpace=wrap;rounded=0;" parent="1" vertex="1">
          <mxGeometry x="-210" y="2070" width="70" height="30" as="geometry" />
        </mxCell>
        <mxCell id="n-kuVpftpnRCnn8pyIgr-32" value="&lt;font style=&quot;font-size: 10px;&quot;&gt;Запрос на добавление дома&lt;/font&gt;" style="text;html=1;strokeColor=none;fillColor=none;align=center;verticalAlign=middle;whiteSpace=wrap;rounded=0;" parent="1" vertex="1">
          <mxGeometry x="508" y="2060" width="70" height="30" as="geometry" />
        </mxCell>
        <mxCell id="n-kuVpftpnRCnn8pyIgr-33" value="&lt;font style=&quot;font-size: 10px;&quot;&gt;Запрос на добавление пользователя&lt;/font&gt;" style="text;html=1;strokeColor=none;fillColor=none;align=center;verticalAlign=middle;whiteSpace=wrap;rounded=0;" parent="1" vertex="1">
          <mxGeometry x="370" y="2180" width="80" height="30" as="geometry" />
        </mxCell>
        <mxCell id="n-kuVpftpnRCnn8pyIgr-35" value="&lt;span style=&quot;font-size: 10px;&quot;&gt;Запрос на добавление лампочки сканир. QR-кода&lt;/span&gt;" style="text;html=1;strokeColor=none;fillColor=none;align=center;verticalAlign=middle;whiteSpace=wrap;rounded=0;" parent="1" vertex="1">
          <mxGeometry x="1388" y="2070" width="80" height="30" as="geometry" />
        </mxCell>
        <mxCell id="n-kuVpftpnRCnn8pyIgr-36" value="&lt;span style=&quot;font-size: 10px;&quot;&gt;Запрос на добавление лампочки вводом кода&lt;/span&gt;" style="text;html=1;strokeColor=none;fillColor=none;align=center;verticalAlign=middle;whiteSpace=wrap;rounded=0;" parent="1" vertex="1">
          <mxGeometry x="1448" y="2150" width="80" height="30" as="geometry" />
        </mxCell>
        <mxCell id="n-kuVpftpnRCnn8pyIgr-38" value="&lt;span style=&quot;font-size: 10px;&quot;&gt;Запрос на включение/выключение лампочки&lt;/span&gt;" style="text;html=1;strokeColor=none;fillColor=none;align=center;verticalAlign=middle;whiteSpace=wrap;rounded=0;" parent="1" vertex="1">
          <mxGeometry x="1498" y="2070" width="80" height="30" as="geometry" />
        </mxCell>
        <mxCell id="n-kuVpftpnRCnn8pyIgr-44" value="&lt;span style=&quot;font-size: 10px;&quot;&gt;Статус регистрации&lt;/span&gt;" style="text;html=1;strokeColor=none;fillColor=none;align=center;verticalAlign=middle;whiteSpace=wrap;rounded=0;" parent="1" vertex="1">
          <mxGeometry x="-130" y="2130" width="70" height="30" as="geometry" />
        </mxCell>
        <mxCell id="n-kuVpftpnRCnn8pyIgr-48" value="&lt;span style=&quot;font-size: 10px;&quot;&gt;Ответ на запрос на добавление лампочки сканир. QR-кода&lt;/span&gt;" style="text;html=1;strokeColor=none;fillColor=none;align=center;verticalAlign=middle;whiteSpace=wrap;rounded=0;" parent="1" vertex="1">
          <mxGeometry x="1238" y="2090" width="80" height="30" as="geometry" />
        </mxCell>
        <mxCell id="n-kuVpftpnRCnn8pyIgr-49" value="&lt;span style=&quot;font-size: 10px;&quot;&gt;Ответ на запрос на добавление лампочки вводом кода&lt;/span&gt;" style="text;html=1;strokeColor=none;fillColor=none;align=center;verticalAlign=middle;whiteSpace=wrap;rounded=0;" parent="1" vertex="1">
          <mxGeometry x="1168" y="2150" width="80" height="30" as="geometry" />
        </mxCell>
        <mxCell id="n-kuVpftpnRCnn8pyIgr-52" value="&lt;font style=&quot;font-size: 10px;&quot;&gt;Ответ на запрос на добавление дома&lt;/font&gt;" style="text;html=1;strokeColor=none;fillColor=none;align=center;verticalAlign=middle;whiteSpace=wrap;rounded=0;" parent="1" vertex="1">
          <mxGeometry x="600" y="2135" width="70" height="30" as="geometry" />
        </mxCell>
        <mxCell id="n-kuVpftpnRCnn8pyIgr-53" value="&lt;font style=&quot;font-size: 10px;&quot;&gt;Ответ на запрос на добавление пользователя&lt;/font&gt;" style="text;html=1;strokeColor=none;fillColor=none;align=center;verticalAlign=middle;whiteSpace=wrap;rounded=0;" parent="1" vertex="1">
          <mxGeometry x="725" y="2180" width="80" height="30" as="geometry" />
        </mxCell>
        <mxCell id="n-kuVpftpnRCnn8pyIgr-55" value="&lt;span style=&quot;font-size: 10px;&quot;&gt;Ответ на запрос на включение/выключение лампочки&lt;/span&gt;" style="text;html=1;strokeColor=none;fillColor=none;align=center;verticalAlign=middle;whiteSpace=wrap;rounded=0;" parent="1" vertex="1">
          <mxGeometry x="1097.9999999999998" y="2080" width="80" height="30" as="geometry" />
        </mxCell>
        <mxCell id="n-kuVpftpnRCnn8pyIgr-56" value="&lt;span style=&quot;font-size: 10px;&quot;&gt;Запрос на редактирование Имени дома&lt;/span&gt;" style="text;html=1;strokeColor=none;fillColor=none;align=center;verticalAlign=middle;whiteSpace=wrap;rounded=0;" parent="1" vertex="1">
          <mxGeometry x="428" y="2120" width="80" height="30" as="geometry" />
        </mxCell>
        <mxCell id="n-kuVpftpnRCnn8pyIgr-58" value="&lt;span style=&quot;font-size: 10px;&quot;&gt;Ответ на запрос на редактирование Имени дома&lt;/span&gt;" style="text;html=1;strokeColor=none;fillColor=none;align=center;verticalAlign=middle;whiteSpace=wrap;rounded=0;" parent="1" vertex="1">
          <mxGeometry x="642" y="2070" width="100" height="30" as="geometry" />
        </mxCell>
        <mxCell id="n-kuVpftpnRCnn8pyIgr-60" value="&lt;span style=&quot;font-size: 10px;&quot;&gt;Запрос конфигурации сети Wi-fi&lt;/span&gt;" style="text;html=1;strokeColor=none;fillColor=none;align=center;verticalAlign=middle;whiteSpace=wrap;rounded=0;" parent="1" vertex="1">
          <mxGeometry x="910" y="2060" width="100" height="30" as="geometry" />
        </mxCell>
        <mxCell id="n-kuVpftpnRCnn8pyIgr-61" value="&lt;span style=&quot;font-size: 10px;&quot;&gt;Ответ на запрос&amp;nbsp; конфигурации сети Wi-fi&lt;/span&gt;" style="text;html=1;strokeColor=none;fillColor=none;align=center;verticalAlign=middle;whiteSpace=wrap;rounded=0;" parent="1" vertex="1">
          <mxGeometry x="1660" y="2050" width="77" height="30" as="geometry" />
        </mxCell>
        <mxCell id="n-kuVpftpnRCnn8pyIgr-65" value="&lt;span style=&quot;font-size: 10px;&quot;&gt;Запрос на добавление лампочки&lt;/span&gt;" style="text;html=1;strokeColor=none;fillColor=none;align=center;verticalAlign=middle;whiteSpace=wrap;rounded=0;" parent="1" vertex="1">
          <mxGeometry x="1988" y="2080" width="80" height="30" as="geometry" />
        </mxCell>
        <mxCell id="n-kuVpftpnRCnn8pyIgr-66" value="&lt;span style=&quot;font-size: 10px;&quot;&gt;Ответ на запрос на добавление лампочки&lt;/span&gt;" style="text;html=1;strokeColor=none;fillColor=none;align=center;verticalAlign=middle;whiteSpace=wrap;rounded=0;" parent="1" vertex="1">
          <mxGeometry x="1788" y="2070" width="80" height="30" as="geometry" />
        </mxCell>
        <mxCell id="n-kuVpftpnRCnn8pyIgr-72" value="&lt;span style=&quot;font-size: 10px;&quot;&gt;Запрос на включение/выкл. режима энергосбережения&lt;/span&gt;" style="text;html=1;strokeColor=none;fillColor=none;align=center;verticalAlign=middle;whiteSpace=wrap;rounded=0;" parent="1" vertex="1">
          <mxGeometry x="1318" y="2150" width="100" height="30" as="geometry" />
        </mxCell>
        <mxCell id="n-kuVpftpnRCnn8pyIgr-77" value="&lt;span style=&quot;font-size: 10px;&quot;&gt;Ответ на запрос на включение/выкл. режима энергосбережения&lt;/span&gt;" style="text;html=1;strokeColor=none;fillColor=none;align=center;verticalAlign=middle;whiteSpace=wrap;rounded=0;" parent="1" vertex="1">
          <mxGeometry x="1028" y="2150" width="80" height="30" as="geometry" />
        </mxCell>
        <mxCell id="n-kuVpftpnRCnn8pyIgr-84" value="&lt;span style=&quot;font-size: 10px;&quot;&gt;Запрос на удаление лампочки&lt;/span&gt;" style="text;html=1;strokeColor=none;fillColor=none;align=center;verticalAlign=middle;whiteSpace=wrap;rounded=0;" parent="1" vertex="1">
          <mxGeometry x="1578" y="2130" width="90" height="30" as="geometry" />
        </mxCell>
        <mxCell id="n-kuVpftpnRCnn8pyIgr-85" value="&lt;span style=&quot;font-size: 10px;&quot;&gt;Ответ на запрос на удаление лампочки&lt;/span&gt;" style="text;html=1;strokeColor=none;fillColor=none;align=center;verticalAlign=middle;whiteSpace=wrap;rounded=0;" parent="1" vertex="1">
          <mxGeometry x="965" y="2220" width="90" height="30" as="geometry" />
        </mxCell>
        <mxCell id="n-kuVpftpnRCnn8pyIgr-89" value="&lt;span style=&quot;font-size: 10px;&quot;&gt;Запрос на добавление/удаление устройств в комнату&lt;/span&gt;" style="text;html=1;strokeColor=none;fillColor=none;align=center;verticalAlign=middle;whiteSpace=wrap;rounded=0;" parent="1" vertex="1">
          <mxGeometry x="2860" y="2190" width="100" height="30" as="geometry" />
        </mxCell>
        <mxCell id="n-kuVpftpnRCnn8pyIgr-91" value="&lt;span style=&quot;font-size: 10px;&quot;&gt;Ответ на запрос на добавление/удаление устройств в комнату&lt;/span&gt;" style="text;html=1;strokeColor=none;fillColor=none;align=center;verticalAlign=middle;whiteSpace=wrap;rounded=0;" parent="1" vertex="1">
          <mxGeometry x="2780" y="2140" width="100" height="30" as="geometry" />
        </mxCell>
        <mxCell id="n-kuVpftpnRCnn8pyIgr-95" value="&lt;span style=&quot;font-size: 10px;&quot;&gt;Запрос на добавление/удаление&amp;nbsp; комнаты&lt;/span&gt;" style="text;html=1;strokeColor=none;fillColor=none;align=center;verticalAlign=middle;whiteSpace=wrap;rounded=0;" parent="1" vertex="1">
          <mxGeometry x="2920" y="2135" width="100" height="30" as="geometry" />
        </mxCell>
        <mxCell id="n-kuVpftpnRCnn8pyIgr-97" value="&lt;span style=&quot;font-size: 10px;&quot;&gt;Ответ на запрос на добавление/удаление&amp;nbsp; комнаты&lt;/span&gt;" style="text;html=1;strokeColor=none;fillColor=none;align=center;verticalAlign=middle;whiteSpace=wrap;rounded=0;" parent="1" vertex="1">
          <mxGeometry x="2700" y="2090" width="100" height="30" as="geometry" />
        </mxCell>
        <mxCell id="n-kuVpftpnRCnn8pyIgr-101" value="&lt;span style=&quot;font-size: 10px;&quot;&gt;Запрос на включение/выключение всех устройств в комнате&lt;/span&gt;" style="text;html=1;strokeColor=none;fillColor=none;align=center;verticalAlign=middle;whiteSpace=wrap;rounded=0;" parent="1" vertex="1">
          <mxGeometry x="2985" y="2070.0000000000005" width="100" height="30" as="geometry" />
        </mxCell>
        <mxCell id="n-kuVpftpnRCnn8pyIgr-103" value="&lt;span style=&quot;font-size: 10px;&quot;&gt;Ответ на запрос на включение/выключение всех устройств в комнате&lt;/span&gt;" style="text;html=1;strokeColor=none;fillColor=none;align=center;verticalAlign=middle;whiteSpace=wrap;rounded=0;" parent="1" vertex="1">
          <mxGeometry x="2640" y="2150.0000000000005" width="100" height="30" as="geometry" />
        </mxCell>
        <mxCell id="n-kuVpftpnRCnn8pyIgr-106" value="&lt;span style=&quot;font-size: 10px;&quot;&gt;Запрос на вход в приложение&lt;/span&gt;" style="text;html=1;strokeColor=none;fillColor=none;align=center;verticalAlign=middle;whiteSpace=wrap;rounded=0;" parent="1" vertex="1">
          <mxGeometry x="-300" y="2060" width="80" height="30" as="geometry" />
        </mxCell>
        <mxCell id="n-kuVpftpnRCnn8pyIgr-108" value="&lt;span style=&quot;font-size: 10px;&quot;&gt;Ответ на запрос на вход в приложение&lt;/span&gt;" style="text;html=1;strokeColor=none;fillColor=none;align=center;verticalAlign=middle;whiteSpace=wrap;rounded=0;" parent="1" vertex="1">
          <mxGeometry x="-60" y="2050" width="80" height="30" as="geometry" />
        </mxCell>
        <mxCell id="n-kuVpftpnRCnn8pyIgr-109" value="&lt;span style=&quot;font-size: 10px;&quot;&gt;Запрос на выход из приложения&lt;/span&gt;" style="text;html=1;strokeColor=none;fillColor=none;align=center;verticalAlign=middle;whiteSpace=wrap;rounded=0;" parent="1" vertex="1">
          <mxGeometry x="-380" y="2110" width="100" height="30" as="geometry" />
        </mxCell>
        <mxCell id="n-kuVpftpnRCnn8pyIgr-111" value="&lt;span style=&quot;font-size: 10px;&quot;&gt;Ответ на запрос на выход из приложения&lt;/span&gt;" style="text;html=1;strokeColor=none;fillColor=none;align=center;verticalAlign=middle;whiteSpace=wrap;rounded=0;" parent="1" vertex="1">
          <mxGeometry x="-10" y="2120" width="100" height="60" as="geometry" />
        </mxCell>
        <mxCell id="_iTPtiKB8E4fqJAveM3g-9" value="&lt;span style=&quot;font-size: 10px;&quot;&gt;Данные пользователя&lt;/span&gt;" style="text;html=1;strokeColor=none;fillColor=none;align=center;verticalAlign=middle;whiteSpace=wrap;rounded=0;" parent="1" vertex="1">
          <mxGeometry x="-170" y="2370" width="70" height="30" as="geometry" />
        </mxCell>
        <mxCell id="YuCdd8GgHudO9QmAjGXH-1" value="&lt;span style=&quot;font-size: 10px;&quot;&gt;Запрос на подключение к сети Wi-fi&lt;/span&gt;" style="text;html=1;strokeColor=none;fillColor=none;align=center;verticalAlign=middle;whiteSpace=wrap;rounded=0;" parent="1" vertex="1">
          <mxGeometry x="2173" y="2070" width="100" height="30" as="geometry" />
        </mxCell>
        <mxCell id="YuCdd8GgHudO9QmAjGXH-2" value="&lt;span style=&quot;font-size: 10px;&quot;&gt;Ответ на запрос на подключение к сети Wi-fi&lt;/span&gt;" style="text;html=1;strokeColor=none;fillColor=none;align=center;verticalAlign=middle;whiteSpace=wrap;rounded=0;" parent="1" vertex="1">
          <mxGeometry x="1888" y="2080" width="100" height="30" as="geometry" />
        </mxCell>
        <mxCell id="x_ObiwN_4ogg4hHT2ygU-1" value="1" style="swimlane;childLayout=stackLayout;horizontal=1;startSize=30;horizontalStack=0;rounded=1;fontSize=14;fontStyle=0;strokeWidth=1;resizeParent=0;resizeLast=1;shadow=0;dashed=0;align=center;fillColor=#FFFFFF;" vertex="1" parent="1">
          <mxGeometry x="-220" y="2190" width="150" height="110" as="geometry" />
        </mxCell>
        <mxCell id="x_ObiwN_4ogg4hHT2ygU-2" value="Управлять учетной &#xa;записью" style="align=center;strokeColor=none;fillColor=none;spacingLeft=4;fontSize=12;verticalAlign=middle;resizable=0;rotatable=0;part=1;" vertex="1" parent="x_ObiwN_4ogg4hHT2ygU-1">
          <mxGeometry y="30" width="150" height="80" as="geometry" />
        </mxCell>
        <mxCell id="x_ObiwN_4ogg4hHT2ygU-4" value="2" style="swimlane;childLayout=stackLayout;horizontal=1;startSize=30;horizontalStack=0;rounded=1;fontSize=14;fontStyle=0;strokeWidth=1;resizeParent=0;resizeLast=1;shadow=0;dashed=0;align=center;fillColor=#FFFFFF;" vertex="1" parent="1">
          <mxGeometry x="508" y="2190" width="150" height="110" as="geometry" />
        </mxCell>
        <mxCell id="x_ObiwN_4ogg4hHT2ygU-5" value="Управлять домом" style="align=center;strokeColor=none;fillColor=none;spacingLeft=4;fontSize=12;verticalAlign=middle;resizable=0;rotatable=0;part=1;" vertex="1" parent="x_ObiwN_4ogg4hHT2ygU-4">
          <mxGeometry y="30" width="150" height="80" as="geometry" />
        </mxCell>
        <mxCell id="x_ObiwN_4ogg4hHT2ygU-6" value="4" style="swimlane;childLayout=stackLayout;horizontal=1;startSize=30;horizontalStack=0;rounded=1;fontSize=14;fontStyle=0;strokeWidth=1;resizeParent=0;resizeLast=1;shadow=0;dashed=0;align=center;fillColor=#FFFFFF;" vertex="1" parent="1">
          <mxGeometry x="3140" y="2190" width="150" height="110" as="geometry" />
        </mxCell>
        <mxCell id="x_ObiwN_4ogg4hHT2ygU-7" value="Управлять комнатами" style="align=center;strokeColor=none;fillColor=none;spacingLeft=4;fontSize=12;verticalAlign=middle;resizable=0;rotatable=0;part=1;" vertex="1" parent="x_ObiwN_4ogg4hHT2ygU-6">
          <mxGeometry y="30" width="150" height="80" as="geometry" />
        </mxCell>
        <mxCell id="x_ObiwN_4ogg4hHT2ygU-8" value="3" style="swimlane;childLayout=stackLayout;horizontal=1;startSize=30;horizontalStack=0;rounded=1;fontSize=14;fontStyle=0;strokeWidth=1;resizeParent=0;resizeLast=1;shadow=0;dashed=0;align=center;fillColor=#FFFFFF;" vertex="1" parent="1">
          <mxGeometry x="1588" y="2190" width="150" height="110" as="geometry" />
        </mxCell>
        <mxCell id="x_ObiwN_4ogg4hHT2ygU-9" value="Управлять устройством" style="align=center;strokeColor=none;fillColor=none;spacingLeft=4;fontSize=12;verticalAlign=middle;resizable=0;rotatable=0;part=1;" vertex="1" parent="x_ObiwN_4ogg4hHT2ygU-8">
          <mxGeometry y="30" width="150" height="80" as="geometry" />
        </mxCell>
        <mxCell id="x_ObiwN_4ogg4hHT2ygU-10" value="5" style="swimlane;childLayout=stackLayout;horizontal=1;startSize=30;horizontalStack=0;rounded=1;fontSize=14;fontStyle=0;strokeWidth=1;resizeParent=0;resizeLast=1;shadow=0;dashed=0;align=center;fillColor=#FFFFFF;" vertex="1" parent="1">
          <mxGeometry x="4310" y="2190" width="150" height="110" as="geometry" />
        </mxCell>
        <mxCell id="x_ObiwN_4ogg4hHT2ygU-11" value="Управлять сценарием" style="align=center;strokeColor=none;fillColor=none;spacingLeft=4;fontSize=12;verticalAlign=middle;resizable=0;rotatable=0;part=1;" vertex="1" parent="x_ObiwN_4ogg4hHT2ygU-10">
          <mxGeometry y="30" width="150" height="80" as="geometry" />
        </mxCell>
        <mxCell id="E9iONWUoSlEUyqeSIlBl-7" style="edgeStyle=orthogonalEdgeStyle;rounded=1;orthogonalLoop=1;jettySize=auto;html=1;exitX=0;exitY=0.5;exitDx=0;exitDy=0;entryX=0;entryY=0.5;entryDx=0;entryDy=0;curved=0;" edge="1" parent="1" source="x_ObiwN_4ogg4hHT2ygU-12" target="x_ObiwN_4ogg4hHT2ygU-2">
          <mxGeometry relative="1" as="geometry">
            <Array as="points">
              <mxPoint x="-260" y="2015" />
              <mxPoint x="-260" y="2260" />
            </Array>
          </mxGeometry>
        </mxCell>
        <mxCell id="E9iONWUoSlEUyqeSIlBl-10" style="edgeStyle=orthogonalEdgeStyle;rounded=1;orthogonalLoop=1;jettySize=auto;html=1;exitX=0;exitY=0.5;exitDx=0;exitDy=0;entryX=0;entryY=0.5;entryDx=0;entryDy=0;curved=0;" edge="1" parent="1" source="x_ObiwN_4ogg4hHT2ygU-12" target="x_ObiwN_4ogg4hHT2ygU-2">
          <mxGeometry relative="1" as="geometry">
            <Array as="points">
              <mxPoint x="-320" y="2015" />
              <mxPoint x="-320" y="2260" />
            </Array>
          </mxGeometry>
        </mxCell>
        <mxCell id="E9iONWUoSlEUyqeSIlBl-94" style="edgeStyle=orthogonalEdgeStyle;rounded=1;orthogonalLoop=1;jettySize=auto;html=1;exitX=0;exitY=0.5;exitDx=0;exitDy=0;entryX=0;entryY=0.5;entryDx=0;entryDy=0;curved=0;" edge="1" parent="1" source="x_ObiwN_4ogg4hHT2ygU-12" target="x_ObiwN_4ogg4hHT2ygU-2">
          <mxGeometry relative="1" as="geometry">
            <Array as="points">
              <mxPoint x="-390" y="2015" />
              <mxPoint x="-390" y="2260" />
            </Array>
          </mxGeometry>
        </mxCell>
        <mxCell id="x_ObiwN_4ogg4hHT2ygU-12" value="Пользователь" style="html=1;dashed=0;whitespace=wrap;" vertex="1" parent="1">
          <mxGeometry x="-195" y="1990" width="100" height="50" as="geometry" />
        </mxCell>
        <mxCell id="E9iONWUoSlEUyqeSIlBl-32" style="edgeStyle=orthogonalEdgeStyle;rounded=1;orthogonalLoop=1;jettySize=auto;html=1;exitX=0;exitY=0.5;exitDx=0;exitDy=0;entryX=1;entryY=0.25;entryDx=0;entryDy=0;curved=0;" edge="1" parent="1" source="x_ObiwN_4ogg4hHT2ygU-13" target="x_ObiwN_4ogg4hHT2ygU-9">
          <mxGeometry relative="1" as="geometry" />
        </mxCell>
        <mxCell id="E9iONWUoSlEUyqeSIlBl-40" style="edgeStyle=orthogonalEdgeStyle;rounded=1;orthogonalLoop=1;jettySize=auto;html=1;exitX=0;exitY=0.5;exitDx=0;exitDy=0;entryX=1;entryY=0.25;entryDx=0;entryDy=0;curved=0;" edge="1" parent="1" source="x_ObiwN_4ogg4hHT2ygU-13" target="x_ObiwN_4ogg4hHT2ygU-9">
          <mxGeometry relative="1" as="geometry">
            <Array as="points">
              <mxPoint x="1878" y="2015" />
              <mxPoint x="1878" y="2240" />
            </Array>
          </mxGeometry>
        </mxCell>
        <mxCell id="E9iONWUoSlEUyqeSIlBl-46" style="edgeStyle=orthogonalEdgeStyle;rounded=1;orthogonalLoop=1;jettySize=auto;html=1;exitX=0;exitY=0.5;exitDx=0;exitDy=0;entryX=1;entryY=0.25;entryDx=0;entryDy=0;curved=0;" edge="1" parent="1" source="x_ObiwN_4ogg4hHT2ygU-13" target="x_ObiwN_4ogg4hHT2ygU-9">
          <mxGeometry relative="1" as="geometry">
            <Array as="points">
              <mxPoint x="1768" y="2015" />
              <mxPoint x="1768" y="2240" />
            </Array>
          </mxGeometry>
        </mxCell>
        <mxCell id="E9iONWUoSlEUyqeSIlBl-54" style="edgeStyle=orthogonalEdgeStyle;rounded=1;orthogonalLoop=1;jettySize=auto;html=1;exitX=0.25;exitY=1;exitDx=0;exitDy=0;entryX=1;entryY=0.25;entryDx=0;entryDy=0;curved=0;" edge="1" parent="1" source="x_ObiwN_4ogg4hHT2ygU-13" target="x_ObiwN_4ogg4hHT2ygU-9">
          <mxGeometry relative="1" as="geometry" />
        </mxCell>
        <mxCell id="x_ObiwN_4ogg4hHT2ygU-13" value="Устройство" style="html=1;dashed=0;whitespace=wrap;" vertex="1" parent="1">
          <mxGeometry x="1908" y="1990" width="100" height="50" as="geometry" />
        </mxCell>
        <mxCell id="E9iONWUoSlEUyqeSIlBl-1" style="edgeStyle=orthogonalEdgeStyle;rounded=1;orthogonalLoop=1;jettySize=auto;html=1;exitX=0.25;exitY=1;exitDx=0;exitDy=0;entryX=0.16;entryY=0.006;entryDx=0;entryDy=0;entryPerimeter=0;curved=0;" edge="1" parent="1" source="x_ObiwN_4ogg4hHT2ygU-12" target="x_ObiwN_4ogg4hHT2ygU-1">
          <mxGeometry relative="1" as="geometry" />
        </mxCell>
        <mxCell id="E9iONWUoSlEUyqeSIlBl-2" style="edgeStyle=orthogonalEdgeStyle;rounded=1;orthogonalLoop=1;jettySize=auto;html=1;exitX=0.75;exitY=1;exitDx=0;exitDy=0;entryX=0.817;entryY=0.019;entryDx=0;entryDy=0;entryPerimeter=0;startArrow=classic;startFill=1;endArrow=none;endFill=0;curved=0;" edge="1" parent="1" source="x_ObiwN_4ogg4hHT2ygU-12" target="x_ObiwN_4ogg4hHT2ygU-1">
          <mxGeometry relative="1" as="geometry" />
        </mxCell>
        <mxCell id="E9iONWUoSlEUyqeSIlBl-3" value="D1" style="html=1;dashed=0;whiteSpace=wrap;shape=mxgraph.dfd.dataStoreID;align=left;spacingLeft=3;points=[[0,0],[0.5,0],[1,0],[0,0.5],[1,0.5],[0,1],[0.5,1],[1,1]];" vertex="1" parent="1">
          <mxGeometry x="-240" y="2420" width="190" height="30" as="geometry" />
        </mxCell>
        <mxCell id="E9iONWUoSlEUyqeSIlBl-4" value="Пользователи" style="text;html=1;strokeColor=none;fillColor=none;align=center;verticalAlign=middle;whiteSpace=wrap;rounded=0;" vertex="1" parent="1">
          <mxGeometry x="-206" y="2420" width="156" height="30" as="geometry" />
        </mxCell>
        <mxCell id="E9iONWUoSlEUyqeSIlBl-5" style="edgeStyle=orthogonalEdgeStyle;rounded=1;orthogonalLoop=1;jettySize=auto;html=1;exitX=0.5;exitY=1;exitDx=0;exitDy=0;entryX=0.5;entryY=0;entryDx=0;entryDy=0;startArrow=classic;startFill=1;curved=0;" edge="1" parent="1" source="x_ObiwN_4ogg4hHT2ygU-2" target="E9iONWUoSlEUyqeSIlBl-4">
          <mxGeometry relative="1" as="geometry" />
        </mxCell>
        <mxCell id="E9iONWUoSlEUyqeSIlBl-8" style="edgeStyle=orthogonalEdgeStyle;rounded=1;orthogonalLoop=1;jettySize=auto;html=1;exitX=1;exitY=0.5;exitDx=0;exitDy=0;entryX=1;entryY=0.5;entryDx=0;entryDy=0;curved=0;" edge="1" parent="1" source="x_ObiwN_4ogg4hHT2ygU-2" target="x_ObiwN_4ogg4hHT2ygU-12">
          <mxGeometry relative="1" as="geometry">
            <Array as="points">
              <mxPoint x="-30" y="2260" />
              <mxPoint x="-30" y="2015" />
            </Array>
          </mxGeometry>
        </mxCell>
        <mxCell id="E9iONWUoSlEUyqeSIlBl-11" style="edgeStyle=orthogonalEdgeStyle;rounded=1;orthogonalLoop=1;jettySize=auto;html=1;exitX=1;exitY=0.5;exitDx=0;exitDy=0;entryX=1;entryY=0.5;entryDx=0;entryDy=0;curved=0;" edge="1" parent="1" source="x_ObiwN_4ogg4hHT2ygU-2" target="x_ObiwN_4ogg4hHT2ygU-12">
          <mxGeometry relative="1" as="geometry">
            <Array as="points">
              <mxPoint x="30" y="2260" />
              <mxPoint x="30" y="2015" />
            </Array>
          </mxGeometry>
        </mxCell>
        <mxCell id="E9iONWUoSlEUyqeSIlBl-12" value="D2" style="html=1;dashed=0;whiteSpace=wrap;shape=mxgraph.dfd.dataStoreID;align=left;spacingLeft=3;points=[[0,0],[0.5,0],[1,0],[0,0.5],[1,0.5],[0,1],[0.5,1],[1,1]];" vertex="1" parent="1">
          <mxGeometry x="488" y="2420" width="190" height="30" as="geometry" />
        </mxCell>
        <mxCell id="E9iONWUoSlEUyqeSIlBl-13" value="Дома" style="text;html=1;strokeColor=none;fillColor=none;align=center;verticalAlign=middle;whiteSpace=wrap;rounded=0;" vertex="1" parent="1">
          <mxGeometry x="522" y="2420" width="156" height="30" as="geometry" />
        </mxCell>
        <mxCell id="E9iONWUoSlEUyqeSIlBl-14" style="edgeStyle=orthogonalEdgeStyle;rounded=1;orthogonalLoop=1;jettySize=auto;html=1;exitX=0.5;exitY=1;exitDx=0;exitDy=0;entryX=0.571;entryY=0.071;entryDx=0;entryDy=0;entryPerimeter=0;curved=0;startArrow=classic;startFill=1;" edge="1" parent="1" source="x_ObiwN_4ogg4hHT2ygU-5" target="E9iONWUoSlEUyqeSIlBl-13">
          <mxGeometry relative="1" as="geometry" />
        </mxCell>
        <mxCell id="E9iONWUoSlEUyqeSIlBl-15" value="&lt;span style=&quot;font-size: 10px;&quot;&gt;Данные&amp;nbsp; дома&lt;/span&gt;" style="text;html=1;strokeColor=none;fillColor=none;align=center;verticalAlign=middle;whiteSpace=wrap;rounded=0;" vertex="1" parent="1">
          <mxGeometry x="580" y="2370" width="70" height="30" as="geometry" />
        </mxCell>
        <mxCell id="E9iONWUoSlEUyqeSIlBl-16" style="edgeStyle=orthogonalEdgeStyle;rounded=1;orthogonalLoop=1;jettySize=auto;html=1;exitX=0;exitY=0.5;exitDx=0;exitDy=0;entryX=0;entryY=0.5;entryDx=0;entryDy=0;curved=0;" edge="1" parent="1">
          <mxGeometry relative="1" as="geometry">
            <mxPoint x="533" y="2010" as="sourcePoint" />
            <mxPoint x="508" y="2255" as="targetPoint" />
            <Array as="points">
              <mxPoint x="468" y="2010" />
              <mxPoint x="468" y="2255" />
            </Array>
          </mxGeometry>
        </mxCell>
        <mxCell id="E9iONWUoSlEUyqeSIlBl-17" style="edgeStyle=orthogonalEdgeStyle;rounded=1;orthogonalLoop=1;jettySize=auto;html=1;exitX=0;exitY=0.5;exitDx=0;exitDy=0;entryX=0;entryY=0.5;entryDx=0;entryDy=0;curved=0;" edge="1" parent="1">
          <mxGeometry relative="1" as="geometry">
            <mxPoint x="533" y="2010" as="sourcePoint" />
            <mxPoint x="508" y="2255" as="targetPoint" />
            <Array as="points">
              <mxPoint x="408" y="2010" />
              <mxPoint x="408" y="2255" />
            </Array>
          </mxGeometry>
        </mxCell>
        <mxCell id="E9iONWUoSlEUyqeSIlBl-18" style="edgeStyle=orthogonalEdgeStyle;rounded=1;orthogonalLoop=1;jettySize=auto;html=1;exitX=0.25;exitY=1;exitDx=0;exitDy=0;entryX=0.16;entryY=0.006;entryDx=0;entryDy=0;entryPerimeter=0;curved=0;" edge="1" parent="1" source="E9iONWUoSlEUyqeSIlBl-22">
          <mxGeometry relative="1" as="geometry">
            <mxPoint x="558" y="2035" as="sourcePoint" />
            <mxPoint x="532" y="2186" as="targetPoint" />
          </mxGeometry>
        </mxCell>
        <mxCell id="E9iONWUoSlEUyqeSIlBl-19" style="edgeStyle=orthogonalEdgeStyle;rounded=1;orthogonalLoop=1;jettySize=auto;html=1;exitX=0.67;exitY=1;exitDx=0;exitDy=0;entryX=0.817;entryY=0.019;entryDx=0;entryDy=0;entryPerimeter=0;startArrow=classic;startFill=1;endArrow=none;endFill=0;curved=0;exitPerimeter=0;" edge="1" parent="1" source="E9iONWUoSlEUyqeSIlBl-22">
          <mxGeometry relative="1" as="geometry">
            <mxPoint x="608" y="2035" as="sourcePoint" />
            <mxPoint x="631" y="2187" as="targetPoint" />
          </mxGeometry>
        </mxCell>
        <mxCell id="E9iONWUoSlEUyqeSIlBl-20" style="edgeStyle=orthogonalEdgeStyle;rounded=1;orthogonalLoop=1;jettySize=auto;html=1;exitX=1;exitY=0.5;exitDx=0;exitDy=0;entryX=1;entryY=0.5;entryDx=0;entryDy=0;curved=0;" edge="1" parent="1">
          <mxGeometry relative="1" as="geometry">
            <mxPoint x="658" y="2255" as="sourcePoint" />
            <mxPoint x="633" y="2010" as="targetPoint" />
            <Array as="points">
              <mxPoint x="698" y="2255" />
              <mxPoint x="698" y="2010" />
            </Array>
          </mxGeometry>
        </mxCell>
        <mxCell id="E9iONWUoSlEUyqeSIlBl-21" style="edgeStyle=orthogonalEdgeStyle;rounded=1;orthogonalLoop=1;jettySize=auto;html=1;exitX=1;exitY=0.5;exitDx=0;exitDy=0;entryX=1;entryY=0.5;entryDx=0;entryDy=0;curved=0;" edge="1" parent="1">
          <mxGeometry relative="1" as="geometry">
            <mxPoint x="658" y="2255" as="sourcePoint" />
            <mxPoint x="633" y="2010" as="targetPoint" />
            <Array as="points">
              <mxPoint x="758" y="2255" />
              <mxPoint x="758" y="2010" />
            </Array>
          </mxGeometry>
        </mxCell>
        <mxCell id="E9iONWUoSlEUyqeSIlBl-22" value="Пользователь" style="html=1;dashed=0;whitespace=wrap;" vertex="1" parent="1">
          <mxGeometry x="533" y="1990" width="100" height="50" as="geometry" />
        </mxCell>
        <mxCell id="E9iONWUoSlEUyqeSIlBl-23" value="D3" style="html=1;dashed=0;whiteSpace=wrap;shape=mxgraph.dfd.dataStoreID;align=left;spacingLeft=3;points=[[0,0],[0.5,0],[1,0],[0,0.5],[1,0.5],[0,1],[0.5,1],[1,1]];" vertex="1" parent="1">
          <mxGeometry x="1568" y="2420" width="190" height="30" as="geometry" />
        </mxCell>
        <mxCell id="E9iONWUoSlEUyqeSIlBl-24" value="Устройства" style="text;html=1;strokeColor=none;fillColor=none;align=center;verticalAlign=middle;whiteSpace=wrap;rounded=0;" vertex="1" parent="1">
          <mxGeometry x="1602" y="2420" width="156" height="30" as="geometry" />
        </mxCell>
        <mxCell id="E9iONWUoSlEUyqeSIlBl-25" style="edgeStyle=orthogonalEdgeStyle;rounded=1;orthogonalLoop=1;jettySize=auto;html=1;exitX=0.5;exitY=1;exitDx=0;exitDy=0;entryX=0.571;entryY=0.071;entryDx=0;entryDy=0;entryPerimeter=0;curved=0;startArrow=classic;startFill=1;" edge="1" parent="1" target="E9iONWUoSlEUyqeSIlBl-24">
          <mxGeometry relative="1" as="geometry">
            <mxPoint x="1663" y="2300" as="sourcePoint" />
          </mxGeometry>
        </mxCell>
        <mxCell id="E9iONWUoSlEUyqeSIlBl-26" value="&lt;span style=&quot;font-size: 10px;&quot;&gt;Данные&amp;nbsp; устройства&lt;/span&gt;" style="text;html=1;strokeColor=none;fillColor=none;align=center;verticalAlign=middle;whiteSpace=wrap;rounded=0;" vertex="1" parent="1">
          <mxGeometry x="1660" y="2370" width="70" height="30" as="geometry" />
        </mxCell>
        <mxCell id="E9iONWUoSlEUyqeSIlBl-29" style="edgeStyle=orthogonalEdgeStyle;rounded=1;orthogonalLoop=1;jettySize=auto;html=1;exitX=1;exitY=0.5;exitDx=0;exitDy=0;entryX=0;entryY=0.25;entryDx=0;entryDy=0;curved=0;" edge="1" parent="1" source="E9iONWUoSlEUyqeSIlBl-27" target="x_ObiwN_4ogg4hHT2ygU-9">
          <mxGeometry relative="1" as="geometry">
            <Array as="points">
              <mxPoint x="1428" y="2015" />
              <mxPoint x="1428" y="2240" />
            </Array>
          </mxGeometry>
        </mxCell>
        <mxCell id="E9iONWUoSlEUyqeSIlBl-35" style="edgeStyle=orthogonalEdgeStyle;rounded=1;orthogonalLoop=1;jettySize=auto;html=1;exitX=1;exitY=0.5;exitDx=0;exitDy=0;entryX=0;entryY=0.25;entryDx=0;entryDy=0;curved=0;" edge="1" parent="1" source="E9iONWUoSlEUyqeSIlBl-27" target="x_ObiwN_4ogg4hHT2ygU-9">
          <mxGeometry relative="1" as="geometry" />
        </mxCell>
        <mxCell id="E9iONWUoSlEUyqeSIlBl-38" style="edgeStyle=orthogonalEdgeStyle;rounded=1;orthogonalLoop=1;jettySize=auto;html=1;exitX=1;exitY=0.5;exitDx=0;exitDy=0;entryX=0;entryY=0.25;entryDx=0;entryDy=0;curved=0;" edge="1" parent="1" source="E9iONWUoSlEUyqeSIlBl-27" target="x_ObiwN_4ogg4hHT2ygU-9">
          <mxGeometry relative="1" as="geometry">
            <Array as="points">
              <mxPoint x="1538" y="2015" />
              <mxPoint x="1538" y="2240" />
            </Array>
          </mxGeometry>
        </mxCell>
        <mxCell id="E9iONWUoSlEUyqeSIlBl-44" style="edgeStyle=orthogonalEdgeStyle;rounded=1;orthogonalLoop=1;jettySize=auto;html=1;exitX=0.75;exitY=1;exitDx=0;exitDy=0;entryX=0;entryY=0.25;entryDx=0;entryDy=0;curved=0;" edge="1" parent="1" source="E9iONWUoSlEUyqeSIlBl-27" target="x_ObiwN_4ogg4hHT2ygU-9">
          <mxGeometry relative="1" as="geometry" />
        </mxCell>
        <mxCell id="E9iONWUoSlEUyqeSIlBl-50" style="edgeStyle=orthogonalEdgeStyle;rounded=1;orthogonalLoop=1;jettySize=auto;html=1;exitX=1;exitY=0.5;exitDx=0;exitDy=0;entryX=0.25;entryY=0;entryDx=0;entryDy=0;curved=0;" edge="1" parent="1" source="E9iONWUoSlEUyqeSIlBl-27" target="x_ObiwN_4ogg4hHT2ygU-8">
          <mxGeometry relative="1" as="geometry" />
        </mxCell>
        <mxCell id="E9iONWUoSlEUyqeSIlBl-53" style="edgeStyle=orthogonalEdgeStyle;rounded=1;orthogonalLoop=1;jettySize=auto;html=1;exitX=1;exitY=0.5;exitDx=0;exitDy=0;entryX=0.75;entryY=0;entryDx=0;entryDy=0;curved=0;" edge="1" parent="1" source="E9iONWUoSlEUyqeSIlBl-27" target="x_ObiwN_4ogg4hHT2ygU-8">
          <mxGeometry relative="1" as="geometry" />
        </mxCell>
        <mxCell id="E9iONWUoSlEUyqeSIlBl-27" value="Пользователь" style="html=1;dashed=0;whitespace=wrap;" vertex="1" parent="1">
          <mxGeometry x="1288" y="1990" width="100" height="50" as="geometry" />
        </mxCell>
        <mxCell id="E9iONWUoSlEUyqeSIlBl-31" style="edgeStyle=orthogonalEdgeStyle;rounded=1;orthogonalLoop=1;jettySize=auto;html=1;exitX=0;exitY=0.75;exitDx=0;exitDy=0;entryX=0;entryY=0.5;entryDx=0;entryDy=0;curved=0;" edge="1" parent="1" source="x_ObiwN_4ogg4hHT2ygU-9" target="E9iONWUoSlEUyqeSIlBl-27">
          <mxGeometry relative="1" as="geometry" />
        </mxCell>
        <mxCell id="E9iONWUoSlEUyqeSIlBl-33" style="edgeStyle=orthogonalEdgeStyle;rounded=1;orthogonalLoop=1;jettySize=auto;html=1;exitX=1;exitY=0.75;exitDx=0;exitDy=0;entryX=1;entryY=0.5;entryDx=0;entryDy=0;curved=0;" edge="1" parent="1" source="x_ObiwN_4ogg4hHT2ygU-9" target="x_ObiwN_4ogg4hHT2ygU-13">
          <mxGeometry relative="1" as="geometry" />
        </mxCell>
        <mxCell id="E9iONWUoSlEUyqeSIlBl-36" style="edgeStyle=orthogonalEdgeStyle;rounded=1;orthogonalLoop=1;jettySize=auto;html=1;exitX=0;exitY=0.75;exitDx=0;exitDy=0;entryX=0;entryY=0.5;entryDx=0;entryDy=0;curved=0;" edge="1" parent="1" source="x_ObiwN_4ogg4hHT2ygU-9" target="E9iONWUoSlEUyqeSIlBl-27">
          <mxGeometry relative="1" as="geometry">
            <mxPoint x="1278" y="2010.0000000000002" as="targetPoint" />
            <Array as="points">
              <mxPoint x="1208" y="2280" />
              <mxPoint x="1208" y="2015" />
            </Array>
          </mxGeometry>
        </mxCell>
        <mxCell id="E9iONWUoSlEUyqeSIlBl-39" style="edgeStyle=orthogonalEdgeStyle;rounded=1;orthogonalLoop=1;jettySize=auto;html=1;exitX=0;exitY=0.75;exitDx=0;exitDy=0;entryX=0;entryY=0.5;entryDx=0;entryDy=0;curved=0;" edge="1" parent="1" source="x_ObiwN_4ogg4hHT2ygU-9" target="E9iONWUoSlEUyqeSIlBl-27">
          <mxGeometry relative="1" as="geometry">
            <mxPoint x="1123" y="2010" as="targetPoint" />
            <mxPoint x="1433" y="2280" as="sourcePoint" />
            <Array as="points">
              <mxPoint x="1138" y="2280" />
              <mxPoint x="1138" y="2015" />
            </Array>
          </mxGeometry>
        </mxCell>
        <mxCell id="E9iONWUoSlEUyqeSIlBl-41" style="edgeStyle=orthogonalEdgeStyle;rounded=1;orthogonalLoop=1;jettySize=auto;html=1;exitX=1;exitY=0.75;exitDx=0;exitDy=0;entryX=1;entryY=0.5;entryDx=0;entryDy=0;curved=0;" edge="1" parent="1" source="x_ObiwN_4ogg4hHT2ygU-9" target="x_ObiwN_4ogg4hHT2ygU-13">
          <mxGeometry relative="1" as="geometry">
            <Array as="points">
              <mxPoint x="2078" y="2280" />
              <mxPoint x="2078" y="2015" />
            </Array>
          </mxGeometry>
        </mxCell>
        <mxCell id="E9iONWUoSlEUyqeSIlBl-42" value="&lt;span style=&quot;font-size: 10px;&quot;&gt;Запрос на включение/выключение лампочки&lt;/span&gt;" style="text;html=1;strokeColor=none;fillColor=none;align=center;verticalAlign=middle;whiteSpace=wrap;rounded=0;" vertex="1" parent="1">
          <mxGeometry x="2038" y="2150" width="80" height="30" as="geometry" />
        </mxCell>
        <mxCell id="E9iONWUoSlEUyqeSIlBl-43" value="&lt;span style=&quot;font-size: 10px;&quot;&gt;Ответ на запрос на включение/выключение лампочки&lt;/span&gt;" style="text;html=1;strokeColor=none;fillColor=none;align=center;verticalAlign=middle;whiteSpace=wrap;rounded=0;" vertex="1" parent="1">
          <mxGeometry x="1837.9999999999998" y="2150" width="80" height="30" as="geometry" />
        </mxCell>
        <mxCell id="E9iONWUoSlEUyqeSIlBl-45" style="edgeStyle=orthogonalEdgeStyle;rounded=1;orthogonalLoop=1;jettySize=auto;html=1;exitX=0;exitY=0.75;exitDx=0;exitDy=0;entryX=0;entryY=0.5;entryDx=0;entryDy=0;curved=0;" edge="1" parent="1" source="x_ObiwN_4ogg4hHT2ygU-9" target="E9iONWUoSlEUyqeSIlBl-27">
          <mxGeometry relative="1" as="geometry">
            <mxPoint x="1288" y="2020" as="targetPoint" />
            <Array as="points">
              <mxPoint x="1078" y="2280" />
              <mxPoint x="1078" y="2015" />
            </Array>
          </mxGeometry>
        </mxCell>
        <mxCell id="E9iONWUoSlEUyqeSIlBl-47" value="&lt;span style=&quot;font-size: 10px;&quot;&gt;Запрос на включение/выкл. режима энергосбережения&lt;/span&gt;" style="text;html=1;strokeColor=none;fillColor=none;align=center;verticalAlign=middle;whiteSpace=wrap;rounded=0;" vertex="1" parent="1">
          <mxGeometry x="2098" y="2220" width="100" height="30" as="geometry" />
        </mxCell>
        <mxCell id="E9iONWUoSlEUyqeSIlBl-48" style="edgeStyle=orthogonalEdgeStyle;rounded=1;orthogonalLoop=1;jettySize=auto;html=1;exitX=1;exitY=0.75;exitDx=0;exitDy=0;entryX=1;entryY=0.5;entryDx=0;entryDy=0;curved=0;" edge="1" parent="1" source="x_ObiwN_4ogg4hHT2ygU-9" target="x_ObiwN_4ogg4hHT2ygU-13">
          <mxGeometry relative="1" as="geometry">
            <Array as="points">
              <mxPoint x="2148" y="2280" />
              <mxPoint x="2148" y="2015" />
            </Array>
          </mxGeometry>
        </mxCell>
        <mxCell id="E9iONWUoSlEUyqeSIlBl-49" value="&lt;span style=&quot;font-size: 10px;&quot;&gt;Ответ на запрос на включение/выкл. режима энергосбережения&lt;/span&gt;" style="text;html=1;strokeColor=none;fillColor=none;align=center;verticalAlign=middle;whiteSpace=wrap;rounded=0;" vertex="1" parent="1">
          <mxGeometry x="1728" y="2130" width="80" height="30" as="geometry" />
        </mxCell>
        <mxCell id="E9iONWUoSlEUyqeSIlBl-51" style="edgeStyle=orthogonalEdgeStyle;rounded=1;orthogonalLoop=1;jettySize=auto;html=1;exitX=0;exitY=0.75;exitDx=0;exitDy=0;entryX=0;entryY=0.5;entryDx=0;entryDy=0;curved=0;" edge="1" parent="1" source="x_ObiwN_4ogg4hHT2ygU-9" target="E9iONWUoSlEUyqeSIlBl-27">
          <mxGeometry relative="1" as="geometry">
            <Array as="points">
              <mxPoint x="1018" y="2280" />
              <mxPoint x="1018" y="2015" />
            </Array>
          </mxGeometry>
        </mxCell>
        <mxCell id="E9iONWUoSlEUyqeSIlBl-52" style="edgeStyle=orthogonalEdgeStyle;rounded=1;orthogonalLoop=1;jettySize=auto;html=1;exitX=0;exitY=0.75;exitDx=0;exitDy=0;entryX=0;entryY=0.5;entryDx=0;entryDy=0;curved=0;" edge="1" parent="1" source="x_ObiwN_4ogg4hHT2ygU-9" target="E9iONWUoSlEUyqeSIlBl-27">
          <mxGeometry relative="1" as="geometry">
            <Array as="points">
              <mxPoint x="965" y="2280" />
              <mxPoint x="965" y="2015" />
            </Array>
          </mxGeometry>
        </mxCell>
        <mxCell id="E9iONWUoSlEUyqeSIlBl-55" style="edgeStyle=orthogonalEdgeStyle;rounded=1;orthogonalLoop=1;jettySize=auto;html=1;exitX=1;exitY=0.75;exitDx=0;exitDy=0;entryX=1;entryY=0.5;entryDx=0;entryDy=0;curved=0;" edge="1" parent="1" source="x_ObiwN_4ogg4hHT2ygU-9" target="x_ObiwN_4ogg4hHT2ygU-13">
          <mxGeometry relative="1" as="geometry">
            <Array as="points">
              <mxPoint x="2215" y="2280" />
              <mxPoint x="2215" y="2015" />
            </Array>
          </mxGeometry>
        </mxCell>
        <mxCell id="E9iONWUoSlEUyqeSIlBl-56" value="D4" style="html=1;dashed=0;whiteSpace=wrap;shape=mxgraph.dfd.dataStoreID;align=left;spacingLeft=3;points=[[0,0],[0.5,0],[1,0],[0,0.5],[1,0.5],[0,1],[0.5,1],[1,1]];" vertex="1" parent="1">
          <mxGeometry x="3118" y="2420" width="190" height="30" as="geometry" />
        </mxCell>
        <mxCell id="E9iONWUoSlEUyqeSIlBl-57" value="Комнаты" style="text;html=1;strokeColor=none;fillColor=none;align=center;verticalAlign=middle;whiteSpace=wrap;rounded=0;" vertex="1" parent="1">
          <mxGeometry x="3152" y="2420" width="156" height="30" as="geometry" />
        </mxCell>
        <mxCell id="E9iONWUoSlEUyqeSIlBl-58" style="edgeStyle=orthogonalEdgeStyle;rounded=1;orthogonalLoop=1;jettySize=auto;html=1;exitX=1;exitY=0.5;exitDx=0;exitDy=0;entryX=0;entryY=0.25;entryDx=0;entryDy=0;curved=0;" edge="1" parent="1" source="E9iONWUoSlEUyqeSIlBl-64">
          <mxGeometry relative="1" as="geometry">
            <mxPoint x="3138" y="2240" as="targetPoint" />
            <Array as="points">
              <mxPoint x="2978" y="2015" />
              <mxPoint x="2978" y="2240" />
            </Array>
          </mxGeometry>
        </mxCell>
        <mxCell id="E9iONWUoSlEUyqeSIlBl-59" style="edgeStyle=orthogonalEdgeStyle;rounded=1;orthogonalLoop=1;jettySize=auto;html=1;exitX=1;exitY=0.5;exitDx=0;exitDy=0;entryX=0;entryY=0.25;entryDx=0;entryDy=0;curved=0;" edge="1" parent="1" source="E9iONWUoSlEUyqeSIlBl-64">
          <mxGeometry relative="1" as="geometry">
            <mxPoint x="3138" y="2240" as="targetPoint" />
            <Array as="points">
              <mxPoint x="3030" y="2015" />
              <mxPoint x="3030" y="2240" />
            </Array>
          </mxGeometry>
        </mxCell>
        <mxCell id="E9iONWUoSlEUyqeSIlBl-61" style="edgeStyle=orthogonalEdgeStyle;rounded=1;orthogonalLoop=1;jettySize=auto;html=1;exitX=0.75;exitY=1;exitDx=0;exitDy=0;entryX=0;entryY=0.25;entryDx=0;entryDy=0;curved=0;" edge="1" parent="1" source="E9iONWUoSlEUyqeSIlBl-64">
          <mxGeometry relative="1" as="geometry">
            <mxPoint x="3138" y="2240" as="targetPoint" />
            <Array as="points">
              <mxPoint x="2913" y="2240" />
            </Array>
          </mxGeometry>
        </mxCell>
        <mxCell id="E9iONWUoSlEUyqeSIlBl-102" style="edgeStyle=orthogonalEdgeStyle;rounded=1;orthogonalLoop=1;jettySize=auto;html=1;exitX=1;exitY=0.5;exitDx=0;exitDy=0;entryX=0;entryY=0.25;entryDx=0;entryDy=0;curved=0;" edge="1" parent="1" source="E9iONWUoSlEUyqeSIlBl-64" target="x_ObiwN_4ogg4hHT2ygU-7">
          <mxGeometry relative="1" as="geometry">
            <Array as="points">
              <mxPoint x="3100" y="2015" />
              <mxPoint x="3100" y="2240" />
            </Array>
          </mxGeometry>
        </mxCell>
        <mxCell id="E9iONWUoSlEUyqeSIlBl-64" value="Пользователь" style="html=1;dashed=0;whitespace=wrap;" vertex="1" parent="1">
          <mxGeometry x="2838" y="1990" width="100" height="50" as="geometry" />
        </mxCell>
        <mxCell id="E9iONWUoSlEUyqeSIlBl-65" style="edgeStyle=orthogonalEdgeStyle;rounded=1;orthogonalLoop=1;jettySize=auto;html=1;exitX=0;exitY=0.75;exitDx=0;exitDy=0;entryX=0;entryY=0.5;entryDx=0;entryDy=0;curved=0;" edge="1" parent="1" target="E9iONWUoSlEUyqeSIlBl-64">
          <mxGeometry relative="1" as="geometry">
            <mxPoint x="3138" y="2280" as="sourcePoint" />
          </mxGeometry>
        </mxCell>
        <mxCell id="E9iONWUoSlEUyqeSIlBl-66" style="edgeStyle=orthogonalEdgeStyle;rounded=1;orthogonalLoop=1;jettySize=auto;html=1;exitX=0;exitY=0.75;exitDx=0;exitDy=0;entryX=0;entryY=0.5;entryDx=0;entryDy=0;curved=0;" edge="1" parent="1" target="E9iONWUoSlEUyqeSIlBl-64">
          <mxGeometry relative="1" as="geometry">
            <mxPoint x="2828" y="2010.0000000000002" as="targetPoint" />
            <mxPoint x="3138" y="2280" as="sourcePoint" />
            <Array as="points">
              <mxPoint x="2758" y="2280" />
              <mxPoint x="2758" y="2015" />
            </Array>
          </mxGeometry>
        </mxCell>
        <mxCell id="E9iONWUoSlEUyqeSIlBl-67" style="edgeStyle=orthogonalEdgeStyle;rounded=1;orthogonalLoop=1;jettySize=auto;html=1;exitX=0;exitY=0.75;exitDx=0;exitDy=0;entryX=0;entryY=0.5;entryDx=0;entryDy=0;curved=0;" edge="1" parent="1" target="E9iONWUoSlEUyqeSIlBl-64">
          <mxGeometry relative="1" as="geometry">
            <mxPoint x="2673" y="2010" as="targetPoint" />
            <mxPoint x="3138" y="2280" as="sourcePoint" />
            <Array as="points">
              <mxPoint x="2688" y="2280" />
              <mxPoint x="2688" y="2015" />
            </Array>
          </mxGeometry>
        </mxCell>
        <mxCell id="E9iONWUoSlEUyqeSIlBl-75" style="edgeStyle=orthogonalEdgeStyle;rounded=1;orthogonalLoop=1;jettySize=auto;html=1;exitX=0.5;exitY=1;exitDx=0;exitDy=0;entryX=0.5;entryY=0;entryDx=0;entryDy=0;startArrow=classic;startFill=1;curved=0;" edge="1" parent="1" source="x_ObiwN_4ogg4hHT2ygU-7" target="E9iONWUoSlEUyqeSIlBl-57">
          <mxGeometry relative="1" as="geometry" />
        </mxCell>
        <mxCell id="E9iONWUoSlEUyqeSIlBl-76" value="&lt;span style=&quot;font-size: 10px;&quot;&gt;Данные&amp;nbsp; комнаты&lt;/span&gt;" style="text;html=1;strokeColor=none;fillColor=none;align=center;verticalAlign=middle;whiteSpace=wrap;rounded=0;" vertex="1" parent="1">
          <mxGeometry x="3200" y="2370" width="70" height="30" as="geometry" />
        </mxCell>
        <mxCell id="E9iONWUoSlEUyqeSIlBl-82" style="edgeStyle=orthogonalEdgeStyle;rounded=1;orthogonalLoop=1;jettySize=auto;html=1;exitX=0.25;exitY=1;exitDx=0;exitDy=0;entryX=1;entryY=0.25;entryDx=0;entryDy=0;curved=0;" edge="1" parent="1" source="E9iONWUoSlEUyqeSIlBl-83">
          <mxGeometry relative="1" as="geometry">
            <mxPoint x="3290" y="2239.75" as="targetPoint" />
            <Array as="points">
              <mxPoint x="3390" y="2040" />
              <mxPoint x="3390" y="2240" />
            </Array>
          </mxGeometry>
        </mxCell>
        <mxCell id="E9iONWUoSlEUyqeSIlBl-83" value="Устройство" style="html=1;dashed=0;whitespace=wrap;" vertex="1" parent="1">
          <mxGeometry x="3360" y="1990" width="100" height="50" as="geometry" />
        </mxCell>
        <mxCell id="E9iONWUoSlEUyqeSIlBl-84" style="edgeStyle=orthogonalEdgeStyle;rounded=1;orthogonalLoop=1;jettySize=auto;html=1;exitX=1;exitY=0.75;exitDx=0;exitDy=0;entryX=1;entryY=0.5;entryDx=0;entryDy=0;curved=0;" edge="1" parent="1" target="E9iONWUoSlEUyqeSIlBl-83">
          <mxGeometry relative="1" as="geometry">
            <mxPoint x="3290" y="2279.75" as="sourcePoint" />
          </mxGeometry>
        </mxCell>
        <mxCell id="E9iONWUoSlEUyqeSIlBl-88" value="&lt;span style=&quot;font-size: 10px;&quot;&gt;Запрос на включение/выключение&lt;/span&gt;" style="text;html=1;strokeColor=none;fillColor=none;align=center;verticalAlign=middle;whiteSpace=wrap;rounded=0;" vertex="1" parent="1">
          <mxGeometry x="3440" y="2070.0000000000005" width="100" height="30" as="geometry" />
        </mxCell>
        <mxCell id="E9iONWUoSlEUyqeSIlBl-89" value="&lt;span style=&quot;font-size: 10px;&quot;&gt;Ответ на запрос на включение/выключение&lt;/span&gt;" style="text;html=1;strokeColor=none;fillColor=none;align=center;verticalAlign=middle;whiteSpace=wrap;rounded=0;" vertex="1" parent="1">
          <mxGeometry x="3340" y="2135.0000000000005" width="100" height="30" as="geometry" />
        </mxCell>
        <mxCell id="E9iONWUoSlEUyqeSIlBl-90" value="D3" style="html=1;dashed=0;whiteSpace=wrap;shape=mxgraph.dfd.dataStoreID;align=left;spacingLeft=3;points=[[0,0],[0.5,0],[1,0],[0,0.5],[1,0.5],[0,1],[0.5,1],[1,1]];" vertex="1" parent="1">
          <mxGeometry x="3340" y="2420" width="190" height="30" as="geometry" />
        </mxCell>
        <mxCell id="E9iONWUoSlEUyqeSIlBl-91" value="Устройства" style="text;html=1;strokeColor=none;fillColor=none;align=center;verticalAlign=middle;whiteSpace=wrap;rounded=0;" vertex="1" parent="1">
          <mxGeometry x="3374" y="2420" width="156" height="30" as="geometry" />
        </mxCell>
        <mxCell id="E9iONWUoSlEUyqeSIlBl-92" style="edgeStyle=orthogonalEdgeStyle;rounded=1;orthogonalLoop=1;jettySize=auto;html=1;exitX=0.75;exitY=1;exitDx=0;exitDy=0;entryX=0.5;entryY=0;entryDx=0;entryDy=0;curved=0;startArrow=classic;startFill=1;" edge="1" parent="1" source="x_ObiwN_4ogg4hHT2ygU-7" target="E9iONWUoSlEUyqeSIlBl-91">
          <mxGeometry relative="1" as="geometry" />
        </mxCell>
        <mxCell id="E9iONWUoSlEUyqeSIlBl-93" value="&lt;span style=&quot;font-size: 10px;&quot;&gt;Данные&amp;nbsp; устройства&lt;/span&gt;" style="text;html=1;strokeColor=none;fillColor=none;align=center;verticalAlign=middle;whiteSpace=wrap;rounded=0;" vertex="1" parent="1">
          <mxGeometry x="3421" y="2370" width="70" height="30" as="geometry" />
        </mxCell>
        <mxCell id="E9iONWUoSlEUyqeSIlBl-95" value="&lt;span style=&quot;font-size: 10px;&quot;&gt;Запрос на восстановление пароля&lt;/span&gt;" style="text;html=1;strokeColor=none;fillColor=none;align=center;verticalAlign=middle;whiteSpace=wrap;rounded=0;" vertex="1" parent="1">
          <mxGeometry x="-440" y="2170" width="100" height="30" as="geometry" />
        </mxCell>
        <mxCell id="E9iONWUoSlEUyqeSIlBl-96" style="edgeStyle=orthogonalEdgeStyle;rounded=1;orthogonalLoop=1;jettySize=auto;html=1;exitX=1;exitY=0.5;exitDx=0;exitDy=0;entryX=1;entryY=0.5;entryDx=0;entryDy=0;curved=0;" edge="1" parent="1" source="x_ObiwN_4ogg4hHT2ygU-2" target="x_ObiwN_4ogg4hHT2ygU-12">
          <mxGeometry relative="1" as="geometry">
            <Array as="points">
              <mxPoint x="100" y="2260" />
              <mxPoint x="100" y="2015" />
            </Array>
          </mxGeometry>
        </mxCell>
        <mxCell id="E9iONWUoSlEUyqeSIlBl-97" value="&lt;span style=&quot;font-size: 10px;&quot;&gt;Ответ на запрос на восстановление пароля&lt;/span&gt;" style="text;html=1;strokeColor=none;fillColor=none;align=center;verticalAlign=middle;whiteSpace=wrap;rounded=0;" vertex="1" parent="1">
          <mxGeometry x="50" y="2190" width="100" height="30" as="geometry" />
        </mxCell>
        <mxCell id="E9iONWUoSlEUyqeSIlBl-98" style="edgeStyle=orthogonalEdgeStyle;rounded=1;orthogonalLoop=1;jettySize=auto;html=1;exitX=0;exitY=0.5;exitDx=0;exitDy=0;entryX=0;entryY=0.5;entryDx=0;entryDy=0;curved=0;" edge="1" parent="1" source="x_ObiwN_4ogg4hHT2ygU-12" target="x_ObiwN_4ogg4hHT2ygU-2">
          <mxGeometry relative="1" as="geometry">
            <Array as="points">
              <mxPoint x="-450" y="2015" />
              <mxPoint x="-450" y="2260" />
            </Array>
          </mxGeometry>
        </mxCell>
        <mxCell id="E9iONWUoSlEUyqeSIlBl-99" style="edgeStyle=orthogonalEdgeStyle;rounded=1;orthogonalLoop=1;jettySize=auto;html=1;exitX=1;exitY=0.5;exitDx=0;exitDy=0;entryX=1;entryY=0.5;entryDx=0;entryDy=0;curved=0;" edge="1" parent="1" source="x_ObiwN_4ogg4hHT2ygU-2" target="x_ObiwN_4ogg4hHT2ygU-12">
          <mxGeometry relative="1" as="geometry">
            <Array as="points">
              <mxPoint x="160" y="2260" />
              <mxPoint x="160" y="2015" />
            </Array>
          </mxGeometry>
        </mxCell>
        <mxCell id="E9iONWUoSlEUyqeSIlBl-100" value="&lt;span style=&quot;font-size: 10px;&quot;&gt;Запрос на смену адреса эл. почты&lt;/span&gt;" style="text;html=1;strokeColor=none;fillColor=none;align=center;verticalAlign=middle;whiteSpace=wrap;rounded=0;" vertex="1" parent="1">
          <mxGeometry x="-500" y="2105" width="100" height="30" as="geometry" />
        </mxCell>
        <mxCell id="E9iONWUoSlEUyqeSIlBl-101" value="&lt;span style=&quot;font-size: 10px;&quot;&gt;Ответ на запрос на смену адреса эл. почты&lt;/span&gt;" style="text;html=1;strokeColor=none;fillColor=none;align=center;verticalAlign=middle;whiteSpace=wrap;rounded=0;" vertex="1" parent="1">
          <mxGeometry x="110" y="2110" width="100" height="30" as="geometry" />
        </mxCell>
        <mxCell id="E9iONWUoSlEUyqeSIlBl-103" value="&lt;span style=&quot;font-size: 10px;&quot;&gt;Запрос на редактирование названия для комнаты&lt;/span&gt;" style="text;html=1;strokeColor=none;fillColor=none;align=center;verticalAlign=middle;whiteSpace=wrap;rounded=0;" vertex="1" parent="1">
          <mxGeometry x="3052" y="2135.0000000000005" width="100" height="30" as="geometry" />
        </mxCell>
        <mxCell id="E9iONWUoSlEUyqeSIlBl-104" style="edgeStyle=orthogonalEdgeStyle;rounded=1;orthogonalLoop=1;jettySize=auto;html=1;exitX=0;exitY=0.75;exitDx=0;exitDy=0;entryX=0;entryY=0.5;entryDx=0;entryDy=0;curved=0;" edge="1" parent="1" source="x_ObiwN_4ogg4hHT2ygU-7" target="E9iONWUoSlEUyqeSIlBl-64">
          <mxGeometry relative="1" as="geometry">
            <Array as="points">
              <mxPoint x="2620" y="2280" />
              <mxPoint x="2620" y="2015" />
            </Array>
          </mxGeometry>
        </mxCell>
        <mxCell id="E9iONWUoSlEUyqeSIlBl-105" value="&lt;span style=&quot;font-size: 10px;&quot;&gt;Ответ на запрос на редактирование названия для комнаты&lt;/span&gt;" style="text;html=1;strokeColor=none;fillColor=none;align=center;verticalAlign=middle;whiteSpace=wrap;rounded=0;" vertex="1" parent="1">
          <mxGeometry x="2570" y="2220.0000000000005" width="100" height="30" as="geometry" />
        </mxCell>
        <mxCell id="E9iONWUoSlEUyqeSIlBl-116" style="edgeStyle=orthogonalEdgeStyle;rounded=1;orthogonalLoop=1;jettySize=auto;html=1;exitX=1;exitY=0.5;exitDx=0;exitDy=0;entryX=0;entryY=0.25;entryDx=0;entryDy=0;curved=0;" edge="1" parent="1" source="E9iONWUoSlEUyqeSIlBl-119">
          <mxGeometry relative="1" as="geometry">
            <mxPoint x="4308" y="2240" as="targetPoint" />
            <Array as="points">
              <mxPoint x="4148" y="2015" />
              <mxPoint x="4148" y="2240" />
            </Array>
          </mxGeometry>
        </mxCell>
        <mxCell id="E9iONWUoSlEUyqeSIlBl-117" style="edgeStyle=orthogonalEdgeStyle;rounded=1;orthogonalLoop=1;jettySize=auto;html=1;exitX=1;exitY=0.5;exitDx=0;exitDy=0;entryX=0;entryY=0.25;entryDx=0;entryDy=0;curved=0;" edge="1" parent="1" source="E9iONWUoSlEUyqeSIlBl-119">
          <mxGeometry relative="1" as="geometry">
            <mxPoint x="4308" y="2240" as="targetPoint" />
            <Array as="points">
              <mxPoint x="4200" y="2015" />
              <mxPoint x="4200" y="2240" />
            </Array>
          </mxGeometry>
        </mxCell>
        <mxCell id="E9iONWUoSlEUyqeSIlBl-118" style="edgeStyle=orthogonalEdgeStyle;rounded=1;orthogonalLoop=1;jettySize=auto;html=1;exitX=1;exitY=0.5;exitDx=0;exitDy=0;entryX=0;entryY=0.25;entryDx=0;entryDy=0;curved=0;" edge="1" parent="1" source="E9iONWUoSlEUyqeSIlBl-119">
          <mxGeometry relative="1" as="geometry">
            <mxPoint x="4310" y="2240" as="targetPoint" />
            <Array as="points">
              <mxPoint x="4270" y="2015" />
              <mxPoint x="4270" y="2240" />
            </Array>
          </mxGeometry>
        </mxCell>
        <mxCell id="E9iONWUoSlEUyqeSIlBl-119" value="Пользователь" style="html=1;dashed=0;whitespace=wrap;" vertex="1" parent="1">
          <mxGeometry x="4008" y="1990" width="100" height="50" as="geometry" />
        </mxCell>
        <mxCell id="E9iONWUoSlEUyqeSIlBl-120" style="edgeStyle=orthogonalEdgeStyle;rounded=1;orthogonalLoop=1;jettySize=auto;html=1;exitX=0;exitY=0.75;exitDx=0;exitDy=0;entryX=0;entryY=0.5;entryDx=0;entryDy=0;curved=0;" edge="1" parent="1" target="E9iONWUoSlEUyqeSIlBl-119">
          <mxGeometry relative="1" as="geometry">
            <mxPoint x="4308" y="2280" as="sourcePoint" />
          </mxGeometry>
        </mxCell>
        <mxCell id="E9iONWUoSlEUyqeSIlBl-121" style="edgeStyle=orthogonalEdgeStyle;rounded=1;orthogonalLoop=1;jettySize=auto;html=1;exitX=0;exitY=0.75;exitDx=0;exitDy=0;entryX=0;entryY=0.5;entryDx=0;entryDy=0;curved=0;" edge="1" parent="1" target="E9iONWUoSlEUyqeSIlBl-119">
          <mxGeometry relative="1" as="geometry">
            <mxPoint x="3998" y="2010" as="targetPoint" />
            <mxPoint x="4308" y="2280" as="sourcePoint" />
            <Array as="points">
              <mxPoint x="3928" y="2280" />
              <mxPoint x="3928" y="2015" />
            </Array>
          </mxGeometry>
        </mxCell>
        <mxCell id="E9iONWUoSlEUyqeSIlBl-122" style="edgeStyle=orthogonalEdgeStyle;rounded=1;orthogonalLoop=1;jettySize=auto;html=1;exitX=0;exitY=0.75;exitDx=0;exitDy=0;entryX=0;entryY=0.5;entryDx=0;entryDy=0;curved=0;" edge="1" parent="1" target="E9iONWUoSlEUyqeSIlBl-119">
          <mxGeometry relative="1" as="geometry">
            <mxPoint x="3843" y="2010" as="targetPoint" />
            <mxPoint x="4308" y="2280" as="sourcePoint" />
            <Array as="points">
              <mxPoint x="3858" y="2280" />
              <mxPoint x="3858" y="2015" />
            </Array>
          </mxGeometry>
        </mxCell>
        <mxCell id="E9iONWUoSlEUyqeSIlBl-123" style="edgeStyle=orthogonalEdgeStyle;rounded=1;orthogonalLoop=1;jettySize=auto;html=1;exitX=0.25;exitY=1;exitDx=0;exitDy=0;entryX=1;entryY=0.25;entryDx=0;entryDy=0;curved=0;" edge="1" parent="1" source="E9iONWUoSlEUyqeSIlBl-124">
          <mxGeometry relative="1" as="geometry">
            <mxPoint x="4460" y="2239.75" as="targetPoint" />
            <Array as="points">
              <mxPoint x="4560" y="2040" />
              <mxPoint x="4560" y="2240" />
            </Array>
          </mxGeometry>
        </mxCell>
        <mxCell id="E9iONWUoSlEUyqeSIlBl-124" value="Устройство" style="html=1;dashed=0;whitespace=wrap;" vertex="1" parent="1">
          <mxGeometry x="4530" y="1990" width="100" height="50" as="geometry" />
        </mxCell>
        <mxCell id="E9iONWUoSlEUyqeSIlBl-125" style="edgeStyle=orthogonalEdgeStyle;rounded=1;orthogonalLoop=1;jettySize=auto;html=1;exitX=1;exitY=0.75;exitDx=0;exitDy=0;entryX=1;entryY=0.5;entryDx=0;entryDy=0;curved=0;" edge="1" parent="1" target="E9iONWUoSlEUyqeSIlBl-124">
          <mxGeometry relative="1" as="geometry">
            <mxPoint x="4460" y="2279.75" as="sourcePoint" />
          </mxGeometry>
        </mxCell>
        <mxCell id="E9iONWUoSlEUyqeSIlBl-127" value="D5" style="html=1;dashed=0;whiteSpace=wrap;shape=mxgraph.dfd.dataStoreID;align=left;spacingLeft=3;points=[[0,0],[0.5,0],[1,0],[0,0.5],[1,0.5],[0,1],[0.5,1],[1,1]];" vertex="1" parent="1">
          <mxGeometry x="4260" y="2420" width="190" height="30" as="geometry" />
        </mxCell>
        <mxCell id="E9iONWUoSlEUyqeSIlBl-128" value="Сценарии" style="text;html=1;strokeColor=none;fillColor=none;align=center;verticalAlign=middle;whiteSpace=wrap;rounded=0;" vertex="1" parent="1">
          <mxGeometry x="4294" y="2420" width="156" height="30" as="geometry" />
        </mxCell>
        <mxCell id="E9iONWUoSlEUyqeSIlBl-129" style="edgeStyle=orthogonalEdgeStyle;rounded=1;orthogonalLoop=1;jettySize=auto;html=1;exitX=0.5;exitY=1;exitDx=0;exitDy=0;entryX=0.5;entryY=0;entryDx=0;entryDy=0;startArrow=classic;startFill=1;curved=0;" edge="1" parent="1" target="E9iONWUoSlEUyqeSIlBl-128">
          <mxGeometry relative="1" as="geometry">
            <mxPoint x="4357" y="2300" as="sourcePoint" />
          </mxGeometry>
        </mxCell>
        <mxCell id="E9iONWUoSlEUyqeSIlBl-130" value="&lt;span style=&quot;font-size: 10px;&quot;&gt;Данные&amp;nbsp; сценария&lt;/span&gt;" style="text;html=1;strokeColor=none;fillColor=none;align=center;verticalAlign=middle;whiteSpace=wrap;rounded=0;" vertex="1" parent="1">
          <mxGeometry x="4342" y="2370" width="70" height="30" as="geometry" />
        </mxCell>
        <mxCell id="E9iONWUoSlEUyqeSIlBl-131" value="D3" style="html=1;dashed=0;whiteSpace=wrap;shape=mxgraph.dfd.dataStoreID;align=left;spacingLeft=3;points=[[0,0],[0.5,0],[1,0],[0,0.5],[1,0.5],[0,1],[0.5,1],[1,1]];" vertex="1" parent="1">
          <mxGeometry x="4482" y="2420" width="190" height="30" as="geometry" />
        </mxCell>
        <mxCell id="E9iONWUoSlEUyqeSIlBl-132" value="Устройства" style="text;html=1;strokeColor=none;fillColor=none;align=center;verticalAlign=middle;whiteSpace=wrap;rounded=0;" vertex="1" parent="1">
          <mxGeometry x="4516" y="2420" width="156" height="30" as="geometry" />
        </mxCell>
        <mxCell id="E9iONWUoSlEUyqeSIlBl-133" style="edgeStyle=orthogonalEdgeStyle;rounded=1;orthogonalLoop=1;jettySize=auto;html=1;entryX=0.5;entryY=0;entryDx=0;entryDy=0;curved=0;startArrow=classic;startFill=1;exitX=0.75;exitY=1;exitDx=0;exitDy=0;" edge="1" parent="1" target="E9iONWUoSlEUyqeSIlBl-132" source="x_ObiwN_4ogg4hHT2ygU-11">
          <mxGeometry relative="1" as="geometry">
            <mxPoint x="4395" y="2300" as="sourcePoint" />
            <Array as="points">
              <mxPoint x="4423" y="2350" />
              <mxPoint x="4594" y="2350" />
            </Array>
          </mxGeometry>
        </mxCell>
        <mxCell id="E9iONWUoSlEUyqeSIlBl-134" value="&lt;span style=&quot;font-size: 10px;&quot;&gt;Данные&amp;nbsp; устройства&lt;/span&gt;" style="text;html=1;strokeColor=none;fillColor=none;align=center;verticalAlign=middle;whiteSpace=wrap;rounded=0;" vertex="1" parent="1">
          <mxGeometry x="4563" y="2370" width="70" height="30" as="geometry" />
        </mxCell>
        <mxCell id="E9iONWUoSlEUyqeSIlBl-135" value="&lt;span style=&quot;font-size: 10px;&quot;&gt;Запрос на включение/выключение&lt;/span&gt;" style="text;html=1;strokeColor=none;fillColor=none;align=center;verticalAlign=middle;whiteSpace=wrap;rounded=0;" vertex="1" parent="1">
          <mxGeometry x="4600" y="2065" width="104" height="55" as="geometry" />
        </mxCell>
        <mxCell id="E9iONWUoSlEUyqeSIlBl-136" value="&lt;span style=&quot;font-size: 10px;&quot;&gt;Ответ на запрос на включение/выключение&lt;/span&gt;" style="text;html=1;strokeColor=none;fillColor=none;align=center;verticalAlign=middle;whiteSpace=wrap;rounded=0;" vertex="1" parent="1">
          <mxGeometry x="4516" y="2130.0000000000005" width="100" height="30" as="geometry" />
        </mxCell>
        <mxCell id="E9iONWUoSlEUyqeSIlBl-137" value="&lt;span style=&quot;font-size: 10px;&quot;&gt;Ответ на запрос на создание сценария&lt;/span&gt;" style="text;html=1;strokeColor=none;fillColor=none;align=center;verticalAlign=middle;whiteSpace=wrap;rounded=0;" vertex="1" parent="1">
          <mxGeometry x="3938" y="2112.5" width="100" height="30" as="geometry" />
        </mxCell>
        <mxCell id="E9iONWUoSlEUyqeSIlBl-138" value="&lt;span style=&quot;font-size: 10px;&quot;&gt;Запрос на создание сценария&lt;/span&gt;" style="text;html=1;strokeColor=none;fillColor=none;align=center;verticalAlign=middle;whiteSpace=wrap;rounded=0;" vertex="1" parent="1">
          <mxGeometry x="4230" y="2110.0000000000005" width="100" height="30" as="geometry" />
        </mxCell>
        <mxCell id="E9iONWUoSlEUyqeSIlBl-139" value="&lt;span style=&quot;font-size: 10px;&quot;&gt;Запрос на запуск/остановку сценария&lt;/span&gt;" style="text;html=1;strokeColor=none;fillColor=none;align=center;verticalAlign=middle;whiteSpace=wrap;rounded=0;" vertex="1" parent="1">
          <mxGeometry x="4160" y="2065.0000000000005" width="100" height="30" as="geometry" />
        </mxCell>
        <mxCell id="E9iONWUoSlEUyqeSIlBl-140" value="&lt;span style=&quot;font-size: 10px;&quot;&gt;Ответ на запрос на запуск/остановку сценария&lt;/span&gt;" style="text;html=1;strokeColor=none;fillColor=none;align=center;verticalAlign=middle;whiteSpace=wrap;rounded=0;" vertex="1" parent="1">
          <mxGeometry x="3880" y="2065.0000000000005" width="100" height="30" as="geometry" />
        </mxCell>
        <mxCell id="E9iONWUoSlEUyqeSIlBl-141" value="&lt;span style=&quot;font-size: 10px;&quot;&gt;Запрос на удаление сценария&lt;/span&gt;" style="text;html=1;strokeColor=none;fillColor=none;align=center;verticalAlign=middle;whiteSpace=wrap;rounded=0;" vertex="1" parent="1">
          <mxGeometry x="4090" y="2130.0000000000005" width="100" height="30" as="geometry" />
        </mxCell>
        <mxCell id="E9iONWUoSlEUyqeSIlBl-142" value="&lt;span style=&quot;font-size: 10px;&quot;&gt;Ответ на запрос на удаление сценария&lt;/span&gt;" style="text;html=1;strokeColor=none;fillColor=none;align=center;verticalAlign=middle;whiteSpace=wrap;rounded=0;" vertex="1" parent="1">
          <mxGeometry x="3800" y="2135" width="100" height="30" as="geometry" />
        </mxCell>
      </root>
    </mxGraphModel>
  </diagram>
  <diagram id="mhyt3VY4VWGyszDuq654" name="ER-диаграмма (3НФ)">
    <mxGraphModel dx="1247" dy="-509" grid="1" gridSize="10" guides="1" tooltips="1" connect="1" arrows="1" fold="1" page="1" pageScale="1" pageWidth="827" pageHeight="1169" math="0" shadow="0">
      <root>
        <mxCell id="0" />
        <mxCell id="1" parent="0" />
        <mxCell id="fUfHEhku8GzXUUUYXOYc-15" value="Пользователь" style="swimlane;childLayout=stackLayout;horizontal=1;startSize=30;horizontalStack=0;rounded=1;fontSize=20;fontStyle=1;strokeWidth=2;resizeParent=0;resizeLast=1;shadow=0;dashed=0;align=center;labelBackgroundColor=#FFFFFF;labelBorderColor=none;" parent="1" vertex="1">
          <mxGeometry x="470" y="1694" width="200" height="120" as="geometry" />
        </mxCell>
        <mxCell id="fUfHEhku8GzXUUUYXOYc-16" value="*e-mail&#xa;Пароль&#xa;Имя" style="align=left;strokeColor=none;fillColor=none;spacingLeft=4;fontSize=12;verticalAlign=top;resizable=0;rotatable=0;part=1;labelBackgroundColor=#FFFFFF;labelBorderColor=none;" parent="fUfHEhku8GzXUUUYXOYc-15" vertex="1">
          <mxGeometry y="30" width="200" height="90" as="geometry" />
        </mxCell>
        <mxCell id="fUfHEhku8GzXUUUYXOYc-17" value="Дом" style="swimlane;childLayout=stackLayout;horizontal=1;startSize=30;horizontalStack=0;rounded=1;fontSize=20;fontStyle=1;strokeWidth=2;resizeParent=0;resizeLast=1;shadow=0;dashed=0;align=center;labelBackgroundColor=#FFFFFF;labelBorderColor=none;" parent="1" vertex="1">
          <mxGeometry x="1160" y="1770" width="200" height="110" as="geometry" />
        </mxCell>
        <mxCell id="fUfHEhku8GzXUUUYXOYc-18" value="*Наименование дома&#xa;SSID сети&#xa;Пароль сети&#xa;" style="align=left;strokeColor=none;fillColor=none;spacingLeft=4;fontSize=12;verticalAlign=top;resizable=0;rotatable=0;part=1;labelBackgroundColor=#FFFFFF;labelBorderColor=none;" parent="fUfHEhku8GzXUUUYXOYc-17" vertex="1">
          <mxGeometry y="30" width="200" height="80" as="geometry" />
        </mxCell>
        <mxCell id="fUfHEhku8GzXUUUYXOYc-20" value="Устройство" style="swimlane;childLayout=stackLayout;horizontal=1;startSize=30;horizontalStack=0;rounded=1;fontSize=20;fontStyle=1;strokeWidth=2;resizeParent=0;resizeLast=1;shadow=0;dashed=0;align=center;labelBackgroundColor=#FFFFFF;labelBorderColor=none;" parent="1" vertex="1">
          <mxGeometry x="1664" y="1800" width="200" height="130" as="geometry" />
        </mxCell>
        <mxCell id="fUfHEhku8GzXUUUYXOYc-21" value="*Код&#xa;Модель&#xa;Имя&#xa;Комната&#xa;Статус" style="align=left;strokeColor=none;fillColor=none;spacingLeft=4;fontSize=12;verticalAlign=top;resizable=0;rotatable=0;part=1;labelBackgroundColor=#FFFFFF;labelBorderColor=none;" parent="fUfHEhku8GzXUUUYXOYc-20" vertex="1">
          <mxGeometry y="30" width="200" height="100" as="geometry" />
        </mxCell>
        <mxCell id="fUfHEhku8GzXUUUYXOYc-22" value="Комната" style="swimlane;childLayout=stackLayout;horizontal=1;startSize=30;horizontalStack=0;rounded=1;fontSize=20;fontStyle=1;strokeWidth=2;resizeParent=0;resizeLast=1;shadow=0;dashed=0;align=center;labelBackgroundColor=#FFFFFF;labelBorderColor=none;" parent="1" vertex="1">
          <mxGeometry x="2090" y="1830" width="200" height="140" as="geometry" />
        </mxCell>
        <mxCell id="fUfHEhku8GzXUUUYXOYc-23" value="*Название&#xa;Статус" style="align=left;strokeColor=none;fillColor=none;spacingLeft=4;fontSize=12;verticalAlign=top;resizable=0;rotatable=0;part=1;labelBackgroundColor=#FFFFFF;labelBorderColor=none;" parent="fUfHEhku8GzXUUUYXOYc-22" vertex="1">
          <mxGeometry y="30" width="200" height="110" as="geometry" />
        </mxCell>
        <mxCell id="fUfHEhku8GzXUUUYXOYc-24" value="Сценарий" style="swimlane;childLayout=stackLayout;horizontal=1;startSize=30;horizontalStack=0;rounded=1;fontSize=20;fontStyle=1;strokeWidth=2;resizeParent=0;resizeLast=1;shadow=0;dashed=0;align=center;labelBackgroundColor=#FFFFFF;labelBorderColor=none;" parent="1" vertex="1">
          <mxGeometry x="1880" y="2150" width="200" height="140" as="geometry" />
        </mxCell>
        <mxCell id="fUfHEhku8GzXUUUYXOYc-25" value="*Имя&#xa;Иконка&#xa;Режим&#xa;Статус&#xa;" style="align=left;strokeColor=none;fillColor=none;spacingLeft=4;fontSize=12;verticalAlign=top;resizable=0;rotatable=0;part=1;labelBackgroundColor=#FFFFFF;labelBorderColor=none;" parent="fUfHEhku8GzXUUUYXOYc-24" vertex="1">
          <mxGeometry y="30" width="200" height="110" as="geometry" />
        </mxCell>
        <mxCell id="fUfHEhku8GzXUUUYXOYc-26" value="Тип комнаты" style="swimlane;childLayout=stackLayout;horizontal=1;startSize=30;horizontalStack=0;rounded=1;fontSize=20;fontStyle=1;strokeWidth=2;resizeParent=0;resizeLast=1;shadow=0;dashed=0;align=center;labelBackgroundColor=#FFFFFF;labelBorderColor=none;" parent="1" vertex="1">
          <mxGeometry x="1800" y="1540" width="200" height="140" as="geometry" />
        </mxCell>
        <mxCell id="fUfHEhku8GzXUUUYXOYc-27" value="*Наименование типа&#xa;*Иконка&#xa;" style="align=left;strokeColor=none;fillColor=none;spacingLeft=4;fontSize=12;verticalAlign=top;resizable=0;rotatable=0;part=1;labelBackgroundColor=#FFFFFF;labelBorderColor=none;" parent="fUfHEhku8GzXUUUYXOYc-26" vertex="1">
          <mxGeometry y="30" width="200" height="110" as="geometry" />
        </mxCell>
        <mxCell id="fUfHEhku8GzXUUUYXOYc-28" value="Тип устройства" style="swimlane;childLayout=stackLayout;horizontal=1;startSize=30;horizontalStack=0;rounded=1;fontSize=20;fontStyle=1;strokeWidth=2;resizeParent=0;resizeLast=1;shadow=0;dashed=0;align=center;labelBackgroundColor=#FFFFFF;labelBorderColor=none;" parent="1" vertex="1">
          <mxGeometry x="1340" y="1540" width="200" height="140" as="geometry" />
        </mxCell>
        <mxCell id="fUfHEhku8GzXUUUYXOYc-29" value="*Наименование типа&#xa;*Иконка&#xa;" style="align=left;strokeColor=none;fillColor=none;spacingLeft=4;fontSize=12;verticalAlign=top;resizable=0;rotatable=0;part=1;labelBackgroundColor=#FFFFFF;labelBorderColor=none;" parent="fUfHEhku8GzXUUUYXOYc-28" vertex="1">
          <mxGeometry y="30" width="200" height="110" as="geometry" />
        </mxCell>
        <mxCell id="fUfHEhku8GzXUUUYXOYc-30" value="Устройство &#xa;в сценарии" style="swimlane;childLayout=stackLayout;horizontal=1;startSize=60;horizontalStack=0;rounded=1;fontSize=20;fontStyle=1;strokeWidth=2;resizeParent=0;resizeLast=1;shadow=0;dashed=0;align=center;labelBackgroundColor=#FFFFFF;labelBorderColor=none;" parent="1" vertex="1">
          <mxGeometry x="1360" y="2020" width="200" height="160" as="geometry" />
        </mxCell>
        <mxCell id="fUfHEhku8GzXUUUYXOYc-31" value="*Код&#xa;*Имя сценария" style="align=left;strokeColor=none;fillColor=none;spacingLeft=4;fontSize=12;verticalAlign=top;resizable=0;rotatable=0;part=1;labelBackgroundColor=#FFFFFF;labelBorderColor=none;" parent="fUfHEhku8GzXUUUYXOYc-30" vertex="1">
          <mxGeometry y="60" width="200" height="100" as="geometry" />
        </mxCell>
        <mxCell id="fUfHEhku8GzXUUUYXOYc-32" value="День недели&#xa;в сценарии" style="swimlane;childLayout=stackLayout;horizontal=1;startSize=60;horizontalStack=0;rounded=1;fontSize=20;fontStyle=1;strokeWidth=2;resizeParent=0;resizeLast=1;shadow=0;dashed=0;align=center;labelBackgroundColor=#FFFFFF;labelBorderColor=none;" parent="1" vertex="1">
          <mxGeometry x="2220" y="2440" width="200" height="160" as="geometry" />
        </mxCell>
        <mxCell id="fUfHEhku8GzXUUUYXOYc-33" value="*Имя сценария&#xa;*День недели" style="align=left;strokeColor=none;fillColor=none;spacingLeft=4;fontSize=12;verticalAlign=top;resizable=0;rotatable=0;part=1;labelBackgroundColor=#FFFFFF;labelBorderColor=none;" parent="fUfHEhku8GzXUUUYXOYc-32" vertex="1">
          <mxGeometry y="60" width="200" height="100" as="geometry" />
        </mxCell>
        <mxCell id="fUfHEhku8GzXUUUYXOYc-34" value="День недели" style="swimlane;childLayout=stackLayout;horizontal=1;startSize=30;horizontalStack=0;rounded=1;fontSize=20;fontStyle=1;strokeWidth=2;resizeParent=0;resizeLast=1;shadow=0;dashed=0;align=center;labelBackgroundColor=#FFFFFF;labelBorderColor=none;" parent="1" vertex="1">
          <mxGeometry x="2560" y="2160" width="200" height="160" as="geometry" />
        </mxCell>
        <mxCell id="fUfHEhku8GzXUUUYXOYc-35" value="*Наименование" style="align=left;strokeColor=none;fillColor=none;spacingLeft=4;fontSize=12;verticalAlign=top;resizable=0;rotatable=0;part=1;labelBackgroundColor=#FFFFFF;labelBorderColor=none;" parent="fUfHEhku8GzXUUUYXOYc-34" vertex="1">
          <mxGeometry y="30" width="200" height="130" as="geometry" />
        </mxCell>
        <mxCell id="fUfHEhku8GzXUUUYXOYc-37" style="edgeStyle=entityRelationEdgeStyle;rounded=0;orthogonalLoop=1;jettySize=auto;html=1;exitX=1;exitY=0.25;exitDx=0;exitDy=0;entryX=0;entryY=0.5;entryDx=0;entryDy=0;endArrow=ERzeroToMany;endFill=0;startArrow=ERmandOne;startFill=0;" parent="1" source="fUfHEhku8GzXUUUYXOYc-18" target="fUfHEhku8GzXUUUYXOYc-21" edge="1">
          <mxGeometry relative="1" as="geometry" />
        </mxCell>
        <mxCell id="fUfHEhku8GzXUUUYXOYc-38" style="edgeStyle=entityRelationEdgeStyle;rounded=0;orthogonalLoop=1;jettySize=auto;html=1;exitX=0;exitY=0.25;exitDx=0;exitDy=0;entryX=1;entryY=0.75;entryDx=0;entryDy=0;endArrow=ERmandOne;endFill=0;startArrow=ERzeroToMany;startFill=0;" parent="1" source="fUfHEhku8GzXUUUYXOYc-21" target="fUfHEhku8GzXUUUYXOYc-29" edge="1">
          <mxGeometry relative="1" as="geometry" />
        </mxCell>
        <mxCell id="fUfHEhku8GzXUUUYXOYc-39" style="edgeStyle=entityRelationEdgeStyle;rounded=0;orthogonalLoop=1;jettySize=auto;html=1;exitX=1;exitY=0.5;exitDx=0;exitDy=0;entryX=0;entryY=0.5;entryDx=0;entryDy=0;endArrow=ERzeroToOne;endFill=0;startArrow=ERzeroToMany;startFill=0;" parent="1" source="fUfHEhku8GzXUUUYXOYc-21" target="fUfHEhku8GzXUUUYXOYc-23" edge="1">
          <mxGeometry relative="1" as="geometry" />
        </mxCell>
        <mxCell id="fUfHEhku8GzXUUUYXOYc-40" style="edgeStyle=entityRelationEdgeStyle;rounded=0;orthogonalLoop=1;jettySize=auto;html=1;exitX=1;exitY=0.75;exitDx=0;exitDy=0;entryX=0;entryY=0.25;entryDx=0;entryDy=0;startArrow=ERmandOne;startFill=0;endArrow=ERzeroToMany;endFill=0;" parent="1" source="fUfHEhku8GzXUUUYXOYc-27" target="fUfHEhku8GzXUUUYXOYc-23" edge="1">
          <mxGeometry relative="1" as="geometry" />
        </mxCell>
        <mxCell id="fUfHEhku8GzXUUUYXOYc-42" style="edgeStyle=entityRelationEdgeStyle;rounded=0;orthogonalLoop=1;jettySize=auto;html=1;exitX=0;exitY=0.75;exitDx=0;exitDy=0;entryX=1;entryY=0.75;entryDx=0;entryDy=0;endArrow=ERoneToMany;endFill=0;startArrow=ERmandOne;startFill=0;" parent="1" source="fUfHEhku8GzXUUUYXOYc-25" target="fUfHEhku8GzXUUUYXOYc-31" edge="1">
          <mxGeometry relative="1" as="geometry" />
        </mxCell>
        <mxCell id="fUfHEhku8GzXUUUYXOYc-43" style="edgeStyle=entityRelationEdgeStyle;rounded=0;orthogonalLoop=1;jettySize=auto;html=1;exitX=1;exitY=0.25;exitDx=0;exitDy=0;entryX=0;entryY=0.75;entryDx=0;entryDy=0;endArrow=ERmandOne;endFill=0;startArrow=ERzeroToMany;startFill=0;" parent="1" source="fUfHEhku8GzXUUUYXOYc-31" target="fUfHEhku8GzXUUUYXOYc-21" edge="1">
          <mxGeometry relative="1" as="geometry" />
        </mxCell>
        <mxCell id="fUfHEhku8GzXUUUYXOYc-44" style="edgeStyle=entityRelationEdgeStyle;rounded=0;orthogonalLoop=1;jettySize=auto;html=1;exitX=1;exitY=0.25;exitDx=0;exitDy=0;entryX=0;entryY=0.5;entryDx=0;entryDy=0;endArrow=ERmandOne;endFill=0;startArrow=ERzeroToMany;startFill=0;" parent="1" source="fUfHEhku8GzXUUUYXOYc-33" target="fUfHEhku8GzXUUUYXOYc-35" edge="1">
          <mxGeometry relative="1" as="geometry" />
        </mxCell>
        <mxCell id="fUfHEhku8GzXUUUYXOYc-45" style="edgeStyle=entityRelationEdgeStyle;rounded=0;orthogonalLoop=1;jettySize=auto;html=1;exitX=1;exitY=0.75;exitDx=0;exitDy=0;entryX=0;entryY=0.5;entryDx=0;entryDy=0;endArrow=ERzeroToMany;endFill=0;startArrow=ERmandOne;startFill=0;" parent="1" source="fUfHEhku8GzXUUUYXOYc-25" target="fUfHEhku8GzXUUUYXOYc-33" edge="1">
          <mxGeometry relative="1" as="geometry" />
        </mxCell>
        <mxCell id="fUfHEhku8GzXUUUYXOYc-46" value="Дома пользователя" style="swimlane;childLayout=stackLayout;horizontal=1;startSize=30;horizontalStack=0;rounded=1;fontSize=20;fontStyle=1;strokeWidth=2;resizeParent=0;resizeLast=1;shadow=0;dashed=0;align=center;labelBackgroundColor=#FFFFFF;labelBorderColor=none;" parent="1" vertex="1">
          <mxGeometry x="790" y="1970" width="200" height="110" as="geometry" />
        </mxCell>
        <mxCell id="fUfHEhku8GzXUUUYXOYc-47" value="*Наименование дома&#xa;*e-mail" style="align=left;strokeColor=none;fillColor=none;spacingLeft=4;fontSize=12;verticalAlign=top;resizable=0;rotatable=0;part=1;labelBackgroundColor=#FFFFFF;labelBorderColor=none;" parent="fUfHEhku8GzXUUUYXOYc-46" vertex="1">
          <mxGeometry y="30" width="200" height="80" as="geometry" />
        </mxCell>
        <mxCell id="fUfHEhku8GzXUUUYXOYc-48" style="edgeStyle=entityRelationEdgeStyle;rounded=0;orthogonalLoop=1;jettySize=auto;html=1;exitX=1;exitY=0.75;exitDx=0;exitDy=0;entryX=0;entryY=0.25;entryDx=0;entryDy=0;endArrow=ERoneToMany;endFill=0;startArrow=ERmandOne;startFill=0;" parent="1" source="fUfHEhku8GzXUUUYXOYc-16" target="fUfHEhku8GzXUUUYXOYc-47" edge="1">
          <mxGeometry relative="1" as="geometry" />
        </mxCell>
        <mxCell id="fUfHEhku8GzXUUUYXOYc-49" style="edgeStyle=entityRelationEdgeStyle;rounded=0;orthogonalLoop=1;jettySize=auto;html=1;exitX=1;exitY=0.5;exitDx=0;exitDy=0;entryX=0;entryY=0.5;entryDx=0;entryDy=0;startArrow=ERoneToMany;startFill=0;endArrow=ERmandOne;endFill=0;" parent="1" source="fUfHEhku8GzXUUUYXOYc-47" target="fUfHEhku8GzXUUUYXOYc-18" edge="1">
          <mxGeometry relative="1" as="geometry" />
        </mxCell>
        <mxCell id="T0cZsfW2l0JxIMgfLRBx-1" value="Создает" style="text;html=1;strokeColor=none;fillColor=none;align=center;verticalAlign=middle;whiteSpace=wrap;rounded=0;" vertex="1" parent="1">
          <mxGeometry x="700" y="1885" width="60" height="30" as="geometry" />
        </mxCell>
        <mxCell id="T0cZsfW2l0JxIMgfLRBx-2" value="Содержат" style="text;html=1;strokeColor=none;fillColor=none;align=center;verticalAlign=middle;whiteSpace=wrap;rounded=0;" vertex="1" parent="1">
          <mxGeometry x="1040" y="1940" width="60" height="30" as="geometry" />
        </mxCell>
        <mxCell id="T0cZsfW2l0JxIMgfLRBx-3" value="Имеет" style="text;html=1;strokeColor=none;fillColor=none;align=center;verticalAlign=middle;whiteSpace=wrap;rounded=0;" vertex="1" parent="1">
          <mxGeometry x="1480" y="1830" width="60" height="30" as="geometry" />
        </mxCell>
        <mxCell id="T0cZsfW2l0JxIMgfLRBx-4" value="Имеет" style="text;html=1;strokeColor=none;fillColor=none;align=center;verticalAlign=middle;whiteSpace=wrap;rounded=0;" vertex="1" parent="1">
          <mxGeometry x="1580" y="1740" width="60" height="30" as="geometry" />
        </mxCell>
        <mxCell id="T0cZsfW2l0JxIMgfLRBx-5" value="Находится" style="text;html=1;strokeColor=none;fillColor=none;align=center;verticalAlign=middle;whiteSpace=wrap;rounded=0;" vertex="1" parent="1">
          <mxGeometry x="1950" y="1880" width="60" height="30" as="geometry" />
        </mxCell>
        <mxCell id="T0cZsfW2l0JxIMgfLRBx-6" value="Имеет" style="text;html=1;strokeColor=none;fillColor=none;align=center;verticalAlign=middle;whiteSpace=wrap;rounded=0;" vertex="1" parent="1">
          <mxGeometry x="2010" y="1754" width="60" height="30" as="geometry" />
        </mxCell>
        <mxCell id="T0cZsfW2l0JxIMgfLRBx-7" value="Содержит" style="text;html=1;strokeColor=none;fillColor=none;align=center;verticalAlign=middle;whiteSpace=wrap;rounded=0;" vertex="1" parent="1">
          <mxGeometry x="1590" y="1990" width="60" height="30" as="geometry" />
        </mxCell>
        <mxCell id="T0cZsfW2l0JxIMgfLRBx-8" value="Содержит" style="text;html=1;strokeColor=none;fillColor=none;align=center;verticalAlign=middle;whiteSpace=wrap;rounded=0;" vertex="1" parent="1">
          <mxGeometry x="1690" y="2190" width="60" height="30" as="geometry" />
        </mxCell>
        <mxCell id="T0cZsfW2l0JxIMgfLRBx-9" value="Содержит" style="text;html=1;strokeColor=none;fillColor=none;align=center;verticalAlign=middle;whiteSpace=wrap;rounded=0;" vertex="1" parent="1">
          <mxGeometry x="2130" y="2380" width="60" height="30" as="geometry" />
        </mxCell>
        <mxCell id="T0cZsfW2l0JxIMgfLRBx-10" value="Содержит" style="text;html=1;strokeColor=none;fillColor=none;align=center;verticalAlign=middle;whiteSpace=wrap;rounded=0;" vertex="1" parent="1">
          <mxGeometry x="2460" y="2370" width="60" height="30" as="geometry" />
        </mxCell>
      </root>
    </mxGraphModel>
  </diagram>
</mxfile>
